%TF.GenerationSoftware,KiCad,Pcbnew,7.0.2*%
%TF.CreationDate,2025-05-12T08:16:42+01:00*%
%TF.ProjectId,PCB-POWER-DISTRO,5043422d-504f-4574-9552-2d4449535452,v0.0.2*%
%TF.SameCoordinates,Original*%
%TF.FileFunction,Legend,Top*%
%TF.FilePolarity,Positive*%
%FSLAX46Y46*%
G04 Gerber Fmt 4.6, Leading zero omitted, Abs format (unit mm)*
G04 Created by KiCad (PCBNEW 7.0.2) date 2025-05-12 08:16:42*
%MOMM*%
%LPD*%
G01*
G04 APERTURE LIST*
%ADD10C,0.150000*%
G04 APERTURE END LIST*
D10*
G36*
X86932465Y-90967879D02*
G01*
X86966290Y-90971554D01*
X86998975Y-90977679D01*
X87030519Y-90986255D01*
X87060921Y-90997280D01*
X87090182Y-91010755D01*
X87118303Y-91026681D01*
X87145282Y-91045056D01*
X87171120Y-91065882D01*
X87195817Y-91089157D01*
X87219374Y-91114883D01*
X87241789Y-91143058D01*
X87263063Y-91173684D01*
X87283195Y-91206760D01*
X87302187Y-91242286D01*
X87320038Y-91280262D01*
X87336778Y-91320468D01*
X87352438Y-91362866D01*
X87367018Y-91407456D01*
X87380519Y-91454239D01*
X87392939Y-91503215D01*
X87404279Y-91554383D01*
X87414539Y-91607743D01*
X87423719Y-91663296D01*
X87431819Y-91721041D01*
X87435464Y-91750736D01*
X87438839Y-91780979D01*
X87441944Y-91811770D01*
X87444779Y-91843109D01*
X87447344Y-91874996D01*
X87449639Y-91907432D01*
X87451664Y-91940415D01*
X87453419Y-91973947D01*
X87454904Y-92008027D01*
X87456119Y-92042654D01*
X87457064Y-92077830D01*
X87457739Y-92113555D01*
X87458144Y-92149827D01*
X87458279Y-92186647D01*
X87458043Y-92218693D01*
X87457333Y-92252913D01*
X87456150Y-92289309D01*
X87454494Y-92327881D01*
X87452941Y-92358237D01*
X87451122Y-92389816D01*
X87449037Y-92422619D01*
X87446685Y-92456646D01*
X87444068Y-92491897D01*
X87443136Y-92503919D01*
X88255000Y-92503919D01*
X88255000Y-92684903D01*
X86410478Y-92684903D01*
X86410478Y-92503919D01*
X86520387Y-92503919D01*
X87334692Y-92503919D01*
X87337137Y-92466144D01*
X87339341Y-92430030D01*
X87341304Y-92395578D01*
X87343027Y-92362788D01*
X87344510Y-92331659D01*
X87345752Y-92302192D01*
X87347034Y-92265487D01*
X87347889Y-92231736D01*
X87348317Y-92200938D01*
X87348370Y-92186647D01*
X87348259Y-92152915D01*
X87347925Y-92119771D01*
X87347370Y-92087216D01*
X87346592Y-92055248D01*
X87345591Y-92023869D01*
X87344369Y-91993078D01*
X87342924Y-91962875D01*
X87341256Y-91933260D01*
X87337255Y-91875796D01*
X87332365Y-91820684D01*
X87326585Y-91767924D01*
X87319916Y-91717518D01*
X87312358Y-91669464D01*
X87303910Y-91623763D01*
X87294574Y-91580414D01*
X87284348Y-91539419D01*
X87273233Y-91500776D01*
X87261229Y-91464486D01*
X87248335Y-91430549D01*
X87234553Y-91398964D01*
X87219864Y-91369506D01*
X87204374Y-91341948D01*
X87188082Y-91316292D01*
X87170989Y-91292535D01*
X87153094Y-91270679D01*
X87134398Y-91250724D01*
X87114901Y-91232669D01*
X87094602Y-91216515D01*
X87073501Y-91202261D01*
X87051600Y-91189907D01*
X87028897Y-91179454D01*
X87005392Y-91170902D01*
X86981086Y-91164250D01*
X86955979Y-91159499D01*
X86930070Y-91156648D01*
X86903360Y-91155698D01*
X86878344Y-91156577D01*
X86854221Y-91159213D01*
X86830991Y-91163606D01*
X86808654Y-91169757D01*
X86787211Y-91177666D01*
X86766660Y-91187331D01*
X86747002Y-91198754D01*
X86728237Y-91211935D01*
X86710366Y-91226873D01*
X86693387Y-91243568D01*
X86677301Y-91262021D01*
X86662109Y-91282231D01*
X86647809Y-91304199D01*
X86634402Y-91327924D01*
X86621889Y-91353406D01*
X86610268Y-91380646D01*
X86599384Y-91409391D01*
X86589202Y-91439573D01*
X86579723Y-91471192D01*
X86570945Y-91504248D01*
X86562870Y-91538740D01*
X86555497Y-91574670D01*
X86548826Y-91612036D01*
X86542857Y-91650839D01*
X86537591Y-91691079D01*
X86533026Y-91732756D01*
X86529164Y-91775870D01*
X86526004Y-91820420D01*
X86523547Y-91866408D01*
X86521791Y-91913832D01*
X86520738Y-91962693D01*
X86520387Y-92012990D01*
X86520387Y-92503919D01*
X86410478Y-92503919D01*
X86410478Y-91945579D01*
X86410964Y-91888670D01*
X86412424Y-91833346D01*
X86414857Y-91779608D01*
X86418263Y-91727455D01*
X86422642Y-91676888D01*
X86427994Y-91627907D01*
X86434320Y-91580512D01*
X86441618Y-91534702D01*
X86449890Y-91490478D01*
X86459135Y-91447839D01*
X86469353Y-91406786D01*
X86480545Y-91367319D01*
X86492709Y-91329438D01*
X86505847Y-91293142D01*
X86519957Y-91258432D01*
X86535041Y-91225307D01*
X86551055Y-91193986D01*
X86567953Y-91164685D01*
X86585737Y-91137406D01*
X86604406Y-91112146D01*
X86623961Y-91088908D01*
X86644401Y-91067690D01*
X86665727Y-91048494D01*
X86687937Y-91031317D01*
X86711034Y-91016162D01*
X86735015Y-91003027D01*
X86759882Y-90991913D01*
X86785635Y-90982820D01*
X86812272Y-90975747D01*
X86839795Y-90970696D01*
X86868204Y-90967664D01*
X86897498Y-90966654D01*
X86932465Y-90967879D01*
G37*
G36*
X87349836Y-90495510D02*
G01*
X87314075Y-90494826D01*
X87278845Y-90492773D01*
X87244145Y-90489353D01*
X87209976Y-90484564D01*
X87176337Y-90478408D01*
X87143229Y-90470883D01*
X87110651Y-90461990D01*
X87078604Y-90451729D01*
X87047087Y-90440100D01*
X87016101Y-90427103D01*
X86985645Y-90412737D01*
X86955719Y-90397003D01*
X86926324Y-90379902D01*
X86897460Y-90361432D01*
X86869126Y-90341594D01*
X86841322Y-90320387D01*
X86814173Y-90297945D01*
X86787802Y-90274397D01*
X86762210Y-90249745D01*
X86737397Y-90223988D01*
X86713362Y-90197126D01*
X86690105Y-90169159D01*
X86667627Y-90140088D01*
X86645928Y-90109911D01*
X86625007Y-90078630D01*
X86604864Y-90046244D01*
X86585500Y-90012753D01*
X86566915Y-89978157D01*
X86549108Y-89942457D01*
X86532080Y-89905652D01*
X86515830Y-89867742D01*
X86500359Y-89828727D01*
X86485689Y-89788793D01*
X86471966Y-89748127D01*
X86459189Y-89706727D01*
X86447358Y-89664595D01*
X86436474Y-89621731D01*
X86426536Y-89578133D01*
X86417545Y-89533803D01*
X86409501Y-89488741D01*
X86402402Y-89442945D01*
X86396250Y-89396417D01*
X86391045Y-89349156D01*
X86386786Y-89301162D01*
X86383473Y-89252436D01*
X86381107Y-89202976D01*
X86379688Y-89152785D01*
X86379214Y-89101860D01*
X86379408Y-89070267D01*
X86379987Y-89038688D01*
X86380953Y-89007121D01*
X86382306Y-88975567D01*
X86384044Y-88944026D01*
X86386170Y-88912498D01*
X86388681Y-88880983D01*
X86391579Y-88849481D01*
X86394864Y-88817991D01*
X86398534Y-88786515D01*
X86401196Y-88765538D01*
X86405378Y-88734769D01*
X86409680Y-88705663D01*
X86415603Y-88669438D01*
X86421739Y-88636168D01*
X86428090Y-88605851D01*
X86436328Y-88572109D01*
X86444900Y-88542983D01*
X86451999Y-88523004D01*
X86567770Y-88523004D01*
X86558601Y-88562383D01*
X86550024Y-88601200D01*
X86542039Y-88639457D01*
X86534644Y-88677152D01*
X86527842Y-88714287D01*
X86521631Y-88750860D01*
X86516011Y-88786873D01*
X86510983Y-88822324D01*
X86506547Y-88857214D01*
X86502702Y-88891544D01*
X86499449Y-88925312D01*
X86496787Y-88958520D01*
X86494716Y-88991166D01*
X86493238Y-89023252D01*
X86492350Y-89054776D01*
X86492055Y-89085740D01*
X86492436Y-89127723D01*
X86493581Y-89169225D01*
X86495489Y-89210247D01*
X86498161Y-89250787D01*
X86501595Y-89290847D01*
X86505793Y-89330425D01*
X86510754Y-89369523D01*
X86516479Y-89408140D01*
X86522967Y-89446277D01*
X86530218Y-89483932D01*
X86538232Y-89521107D01*
X86547009Y-89557800D01*
X86556550Y-89594013D01*
X86566854Y-89629745D01*
X86577921Y-89664996D01*
X86589752Y-89699766D01*
X86602279Y-89733853D01*
X86615558Y-89767052D01*
X86629588Y-89799363D01*
X86644371Y-89830787D01*
X86659905Y-89861324D01*
X86676191Y-89890974D01*
X86693229Y-89919737D01*
X86711018Y-89947612D01*
X86729560Y-89974600D01*
X86748853Y-90000700D01*
X86768898Y-90025914D01*
X86789695Y-90050240D01*
X86811244Y-90073678D01*
X86833544Y-90096230D01*
X86856597Y-90117894D01*
X86880401Y-90138671D01*
X86904915Y-90158369D01*
X86930097Y-90176796D01*
X86955946Y-90193952D01*
X86982464Y-90209837D01*
X87009649Y-90224452D01*
X87037502Y-90237795D01*
X87066023Y-90249868D01*
X87095212Y-90260670D01*
X87125069Y-90270201D01*
X87155594Y-90278462D01*
X87186786Y-90285451D01*
X87218647Y-90291170D01*
X87251175Y-90295618D01*
X87284371Y-90298795D01*
X87318235Y-90300701D01*
X87352766Y-90301337D01*
X87377288Y-90301020D01*
X87401453Y-90300069D01*
X87425262Y-90298484D01*
X87448716Y-90296265D01*
X87471813Y-90293412D01*
X87494555Y-90289925D01*
X87516941Y-90285804D01*
X87538971Y-90281049D01*
X87560645Y-90275660D01*
X87581964Y-90269637D01*
X87602926Y-90262981D01*
X87623533Y-90255690D01*
X87643783Y-90247765D01*
X87663678Y-90239206D01*
X87683217Y-90230014D01*
X87702400Y-90220187D01*
X87721227Y-90209726D01*
X87739699Y-90198631D01*
X87757814Y-90186903D01*
X87775574Y-90174540D01*
X87810025Y-90147913D01*
X87843053Y-90118750D01*
X87874658Y-90087051D01*
X87904839Y-90052816D01*
X87933597Y-90016045D01*
X87960931Y-89976738D01*
X87986662Y-89935050D01*
X88010734Y-89891135D01*
X88033145Y-89844993D01*
X88053896Y-89796624D01*
X88072987Y-89746028D01*
X88081910Y-89719896D01*
X88090418Y-89693206D01*
X88098511Y-89665960D01*
X88106189Y-89638157D01*
X88113452Y-89609798D01*
X88120300Y-89580881D01*
X88126732Y-89551408D01*
X88132750Y-89521379D01*
X88138353Y-89490792D01*
X88143541Y-89459649D01*
X88148314Y-89427949D01*
X88152671Y-89395693D01*
X88156614Y-89362879D01*
X88160142Y-89329510D01*
X88163254Y-89295583D01*
X88165952Y-89261100D01*
X88168235Y-89226060D01*
X88170102Y-89190463D01*
X88171555Y-89154309D01*
X88172592Y-89117599D01*
X88173215Y-89080332D01*
X88173422Y-89042509D01*
X88173132Y-89007052D01*
X88172262Y-88971755D01*
X88170812Y-88936618D01*
X88168782Y-88901642D01*
X88166171Y-88866826D01*
X88162981Y-88832170D01*
X88159211Y-88797675D01*
X88154860Y-88763339D01*
X88149929Y-88729164D01*
X88144419Y-88695150D01*
X88138328Y-88661295D01*
X88131657Y-88627601D01*
X88124406Y-88594068D01*
X88116575Y-88560694D01*
X88108164Y-88527481D01*
X88099173Y-88494428D01*
X88212013Y-88494428D01*
X88220668Y-88521047D01*
X88228804Y-88549245D01*
X88236422Y-88579024D01*
X88243520Y-88610382D01*
X88250099Y-88643321D01*
X88256160Y-88677839D01*
X88261701Y-88713937D01*
X88266723Y-88751616D01*
X88271303Y-88790084D01*
X88274337Y-88819176D01*
X88277027Y-88848473D01*
X88279374Y-88877977D01*
X88281378Y-88907687D01*
X88283038Y-88937603D01*
X88284354Y-88967725D01*
X88285328Y-88998053D01*
X88285957Y-89028587D01*
X88286244Y-89059327D01*
X88286263Y-89069620D01*
X88286025Y-89112311D01*
X88285314Y-89154379D01*
X88284129Y-89195824D01*
X88282469Y-89236648D01*
X88280335Y-89276848D01*
X88277727Y-89316426D01*
X88274645Y-89355382D01*
X88271089Y-89393715D01*
X88267059Y-89431425D01*
X88262554Y-89468513D01*
X88257575Y-89504979D01*
X88252122Y-89540822D01*
X88246195Y-89576042D01*
X88239793Y-89610640D01*
X88232918Y-89644615D01*
X88225568Y-89677968D01*
X88217744Y-89710698D01*
X88209446Y-89742806D01*
X88200674Y-89774291D01*
X88191428Y-89805153D01*
X88181707Y-89835393D01*
X88171512Y-89865011D01*
X88160843Y-89894006D01*
X88149700Y-89922379D01*
X88138083Y-89950128D01*
X88125992Y-89977256D01*
X88113426Y-90003761D01*
X88100386Y-90029643D01*
X88086872Y-90054903D01*
X88072884Y-90079540D01*
X88058422Y-90103555D01*
X88043485Y-90126947D01*
X88028079Y-90149622D01*
X88012268Y-90171578D01*
X87996052Y-90192813D01*
X87979433Y-90213329D01*
X87962408Y-90233125D01*
X87944979Y-90252201D01*
X87927145Y-90270557D01*
X87908907Y-90288193D01*
X87890265Y-90305110D01*
X87871218Y-90321306D01*
X87851766Y-90336783D01*
X87831910Y-90351540D01*
X87811649Y-90365577D01*
X87790984Y-90378894D01*
X87769914Y-90391492D01*
X87748440Y-90403369D01*
X87726561Y-90414527D01*
X87704278Y-90424964D01*
X87681590Y-90434682D01*
X87658497Y-90443681D01*
X87635000Y-90451959D01*
X87611099Y-90459517D01*
X87586793Y-90466356D01*
X87562083Y-90472474D01*
X87536968Y-90477873D01*
X87511448Y-90482552D01*
X87485524Y-90486512D01*
X87459195Y-90489751D01*
X87432462Y-90492270D01*
X87405324Y-90494070D01*
X87377782Y-90495150D01*
X87349836Y-90495510D01*
G37*
G36*
X87761963Y-86178622D02*
G01*
X87788795Y-86181868D01*
X87815258Y-86187278D01*
X87841351Y-86194851D01*
X87867076Y-86204588D01*
X87892431Y-86216489D01*
X87917416Y-86230554D01*
X87942033Y-86246783D01*
X87966280Y-86265176D01*
X87990158Y-86285732D01*
X88005872Y-86300639D01*
X88028765Y-86324310D01*
X88050551Y-86349437D01*
X88071229Y-86376019D01*
X88090800Y-86404056D01*
X88109262Y-86433550D01*
X88126617Y-86464498D01*
X88142865Y-86496902D01*
X88158005Y-86530761D01*
X88172037Y-86566076D01*
X88184961Y-86602846D01*
X88192962Y-86628168D01*
X88204049Y-86668670D01*
X88210834Y-86698082D01*
X88217135Y-86729423D01*
X88222951Y-86762693D01*
X88228282Y-86797893D01*
X88233129Y-86835022D01*
X88237491Y-86874080D01*
X88241368Y-86915067D01*
X88244761Y-86957983D01*
X88247669Y-87002828D01*
X88250092Y-87049602D01*
X88252031Y-87098306D01*
X88253485Y-87148939D01*
X88254454Y-87201501D01*
X88254939Y-87255992D01*
X88255000Y-87283960D01*
X88255000Y-87916305D01*
X86410478Y-87916305D01*
X86410478Y-87735321D01*
X86520387Y-87735321D01*
X87254581Y-87735321D01*
X87367421Y-87735321D01*
X88145090Y-87735321D01*
X88145090Y-87256849D01*
X88144934Y-87219875D01*
X88144464Y-87183691D01*
X88143682Y-87148297D01*
X88142587Y-87113693D01*
X88141179Y-87079878D01*
X88139457Y-87046854D01*
X88137423Y-87014620D01*
X88135076Y-86983175D01*
X88132416Y-86952521D01*
X88129443Y-86922657D01*
X88126158Y-86893582D01*
X88120642Y-86851452D01*
X88114422Y-86811099D01*
X88107499Y-86772523D01*
X88105034Y-86760060D01*
X88096974Y-86723899D01*
X88087815Y-86689606D01*
X88077557Y-86657181D01*
X88066200Y-86626623D01*
X88053743Y-86597933D01*
X88040188Y-86571110D01*
X88025533Y-86546155D01*
X88009780Y-86523068D01*
X87992927Y-86501848D01*
X87974975Y-86482496D01*
X87962397Y-86470632D01*
X87942882Y-86454263D01*
X87922990Y-86439505D01*
X87902719Y-86426357D01*
X87882071Y-86414818D01*
X87861045Y-86404890D01*
X87839642Y-86396572D01*
X87817860Y-86389863D01*
X87795701Y-86384765D01*
X87773164Y-86381277D01*
X87750249Y-86379398D01*
X87734762Y-86379041D01*
X87708277Y-86379936D01*
X87682676Y-86382621D01*
X87657959Y-86387097D01*
X87634127Y-86393363D01*
X87611179Y-86401420D01*
X87589115Y-86411266D01*
X87567936Y-86422903D01*
X87547642Y-86436331D01*
X87528232Y-86451549D01*
X87509706Y-86468557D01*
X87497847Y-86480890D01*
X87480945Y-86501268D01*
X87465229Y-86524210D01*
X87450697Y-86549714D01*
X87437351Y-86577782D01*
X87425189Y-86608413D01*
X87414213Y-86641607D01*
X87404421Y-86677364D01*
X87395814Y-86715684D01*
X87388392Y-86756567D01*
X87384103Y-86785246D01*
X87380340Y-86815065D01*
X87378656Y-86830401D01*
X87376023Y-86860466D01*
X87373741Y-86893874D01*
X87371810Y-86930625D01*
X87370592Y-86960382D01*
X87369571Y-86992020D01*
X87368749Y-87025538D01*
X87368123Y-87060936D01*
X87367695Y-87098215D01*
X87367465Y-87137375D01*
X87367421Y-87164526D01*
X87367421Y-87735321D01*
X87254581Y-87735321D01*
X87254581Y-87168189D01*
X87254199Y-87125286D01*
X87253052Y-87083954D01*
X87251142Y-87044194D01*
X87248467Y-87006004D01*
X87245028Y-86969387D01*
X87240825Y-86934340D01*
X87235858Y-86900865D01*
X87230126Y-86868961D01*
X87223630Y-86838629D01*
X87216370Y-86809868D01*
X87211106Y-86791567D01*
X87202593Y-86765120D01*
X87190122Y-86731781D01*
X87176368Y-86700640D01*
X87161332Y-86671697D01*
X87145013Y-86644952D01*
X87127412Y-86620406D01*
X87108529Y-86598058D01*
X87088364Y-86577908D01*
X87083122Y-86573214D01*
X87061385Y-86555697D01*
X87038670Y-86540516D01*
X87014979Y-86527670D01*
X86990310Y-86517160D01*
X86971168Y-86510810D01*
X86951475Y-86505774D01*
X86931234Y-86502052D01*
X86910443Y-86499643D01*
X86889102Y-86498548D01*
X86881866Y-86498475D01*
X86858486Y-86499210D01*
X86835973Y-86501412D01*
X86814328Y-86505083D01*
X86793550Y-86510222D01*
X86773638Y-86516829D01*
X86754595Y-86524905D01*
X86730552Y-86537957D01*
X86708051Y-86553619D01*
X86687092Y-86571891D01*
X86677191Y-86582006D01*
X86658262Y-86604297D01*
X86640554Y-86629405D01*
X86624068Y-86657329D01*
X86608803Y-86688069D01*
X86598155Y-86712972D01*
X86588195Y-86739460D01*
X86578921Y-86767532D01*
X86570334Y-86797188D01*
X86562435Y-86828429D01*
X86559954Y-86839194D01*
X86552883Y-86873408D01*
X86546507Y-86911202D01*
X86540827Y-86952577D01*
X86537427Y-86982149D01*
X86534336Y-87013313D01*
X86531554Y-87046068D01*
X86529081Y-87080415D01*
X86526917Y-87116353D01*
X86525062Y-87153883D01*
X86523517Y-87193003D01*
X86522280Y-87233716D01*
X86521353Y-87276019D01*
X86520735Y-87319914D01*
X86520425Y-87365401D01*
X86520387Y-87388741D01*
X86520387Y-87735321D01*
X86410478Y-87735321D01*
X86410478Y-87473004D01*
X86410556Y-87430377D01*
X86410790Y-87388958D01*
X86411182Y-87348747D01*
X86411729Y-87309743D01*
X86412433Y-87271948D01*
X86413294Y-87235360D01*
X86414311Y-87199980D01*
X86415484Y-87165808D01*
X86416814Y-87132844D01*
X86418301Y-87101087D01*
X86419944Y-87070539D01*
X86421743Y-87041198D01*
X86424736Y-86999452D01*
X86428080Y-86960424D01*
X86430505Y-86935914D01*
X86434638Y-86900248D01*
X86439527Y-86865238D01*
X86445171Y-86830884D01*
X86451571Y-86797188D01*
X86458727Y-86764149D01*
X86466638Y-86731766D01*
X86475305Y-86700041D01*
X86484727Y-86668972D01*
X86494905Y-86638560D01*
X86505839Y-86608805D01*
X86513548Y-86589334D01*
X86525499Y-86561092D01*
X86537905Y-86534345D01*
X86550767Y-86509091D01*
X86564083Y-86485332D01*
X86577855Y-86463067D01*
X86592082Y-86442296D01*
X86611758Y-86416925D01*
X86632244Y-86394210D01*
X86653539Y-86374152D01*
X86664490Y-86365119D01*
X86687037Y-86348632D01*
X86710713Y-86334344D01*
X86735519Y-86322254D01*
X86754865Y-86314629D01*
X86774846Y-86308241D01*
X86795462Y-86303089D01*
X86816714Y-86299173D01*
X86838602Y-86296494D01*
X86861125Y-86295052D01*
X86876493Y-86294777D01*
X86897610Y-86295284D01*
X86918218Y-86296806D01*
X86938318Y-86299343D01*
X86957910Y-86302894D01*
X86995567Y-86313041D01*
X87031190Y-86327246D01*
X87064779Y-86345510D01*
X87096334Y-86367832D01*
X87125855Y-86394213D01*
X87153342Y-86424653D01*
X87178795Y-86459151D01*
X87202214Y-86497708D01*
X87223598Y-86540324D01*
X87242949Y-86586998D01*
X87260265Y-86637731D01*
X87268161Y-86664619D01*
X87275548Y-86692523D01*
X87282426Y-86721440D01*
X87288796Y-86751373D01*
X87294657Y-86782320D01*
X87300010Y-86814281D01*
X87305383Y-86814281D01*
X87306355Y-86777422D01*
X87308169Y-86741581D01*
X87310827Y-86706759D01*
X87314329Y-86672956D01*
X87318674Y-86640173D01*
X87323862Y-86608408D01*
X87329893Y-86577662D01*
X87336769Y-86547935D01*
X87344487Y-86519227D01*
X87353049Y-86491537D01*
X87362454Y-86464867D01*
X87372703Y-86439216D01*
X87383795Y-86414584D01*
X87395730Y-86390970D01*
X87408509Y-86368376D01*
X87422131Y-86346801D01*
X87436519Y-86326304D01*
X87451593Y-86307130D01*
X87467354Y-86289279D01*
X87483803Y-86272749D01*
X87500938Y-86257542D01*
X87518760Y-86243658D01*
X87537269Y-86231095D01*
X87556465Y-86219855D01*
X87576348Y-86209938D01*
X87596918Y-86201343D01*
X87618174Y-86194070D01*
X87640118Y-86188119D01*
X87662749Y-86183491D01*
X87686066Y-86180185D01*
X87710071Y-86178201D01*
X87734762Y-86177540D01*
X87761963Y-86178622D01*
G37*
G36*
X87629738Y-85657303D02*
G01*
X87514455Y-85657303D01*
X87514455Y-84750185D01*
X87629738Y-84750185D01*
X87629738Y-85657303D01*
G37*
G36*
X86932465Y-82424264D02*
G01*
X86966290Y-82427939D01*
X86998975Y-82434065D01*
X87030519Y-82442640D01*
X87060921Y-82453665D01*
X87090182Y-82467140D01*
X87118303Y-82483066D01*
X87145282Y-82501441D01*
X87171120Y-82522267D01*
X87195817Y-82545542D01*
X87219374Y-82571268D01*
X87241789Y-82599444D01*
X87263063Y-82630069D01*
X87283195Y-82663145D01*
X87302187Y-82698671D01*
X87320038Y-82736647D01*
X87336778Y-82776853D01*
X87352438Y-82819251D01*
X87367018Y-82863841D01*
X87380519Y-82910624D01*
X87392939Y-82959600D01*
X87404279Y-83010768D01*
X87414539Y-83064128D01*
X87423719Y-83119681D01*
X87431819Y-83177426D01*
X87435464Y-83207121D01*
X87438839Y-83237364D01*
X87441944Y-83268155D01*
X87444779Y-83299494D01*
X87447344Y-83331382D01*
X87449639Y-83363817D01*
X87451664Y-83396800D01*
X87453419Y-83430332D01*
X87454904Y-83464412D01*
X87456119Y-83499040D01*
X87457064Y-83534216D01*
X87457739Y-83569940D01*
X87458144Y-83606212D01*
X87458279Y-83643032D01*
X87458043Y-83675078D01*
X87457333Y-83709298D01*
X87456150Y-83745694D01*
X87454494Y-83784266D01*
X87452941Y-83814622D01*
X87451122Y-83846201D01*
X87449037Y-83879005D01*
X87446685Y-83913031D01*
X87444068Y-83948282D01*
X87443136Y-83960304D01*
X88255000Y-83960304D01*
X88255000Y-84141288D01*
X86410478Y-84141288D01*
X86410478Y-83960304D01*
X86520387Y-83960304D01*
X87334692Y-83960304D01*
X87337137Y-83922529D01*
X87339341Y-83886416D01*
X87341304Y-83851964D01*
X87343027Y-83819173D01*
X87344510Y-83788045D01*
X87345752Y-83758577D01*
X87347034Y-83721872D01*
X87347889Y-83688121D01*
X87348317Y-83657323D01*
X87348370Y-83643032D01*
X87348259Y-83609300D01*
X87347925Y-83576157D01*
X87347370Y-83543601D01*
X87346592Y-83511633D01*
X87345591Y-83480254D01*
X87344369Y-83449463D01*
X87342924Y-83419260D01*
X87341256Y-83389646D01*
X87337255Y-83332181D01*
X87332365Y-83277069D01*
X87326585Y-83224309D01*
X87319916Y-83173903D01*
X87312358Y-83125849D01*
X87303910Y-83080148D01*
X87294574Y-83036800D01*
X87284348Y-82995804D01*
X87273233Y-82957161D01*
X87261229Y-82920871D01*
X87248335Y-82886934D01*
X87234553Y-82855349D01*
X87219864Y-82825891D01*
X87204374Y-82798334D01*
X87188082Y-82772677D01*
X87170989Y-82748920D01*
X87153094Y-82727064D01*
X87134398Y-82707109D01*
X87114901Y-82689054D01*
X87094602Y-82672900D01*
X87073501Y-82658646D01*
X87051600Y-82646293D01*
X87028897Y-82635840D01*
X87005392Y-82627287D01*
X86981086Y-82620636D01*
X86955979Y-82615884D01*
X86930070Y-82613033D01*
X86903360Y-82612083D01*
X86878344Y-82612962D01*
X86854221Y-82615598D01*
X86830991Y-82619992D01*
X86808654Y-82626142D01*
X86787211Y-82634051D01*
X86766660Y-82643717D01*
X86747002Y-82655140D01*
X86728237Y-82668320D01*
X86710366Y-82683258D01*
X86693387Y-82699953D01*
X86677301Y-82718406D01*
X86662109Y-82738616D01*
X86647809Y-82760584D01*
X86634402Y-82784309D01*
X86621889Y-82809791D01*
X86610268Y-82837031D01*
X86599384Y-82865776D01*
X86589202Y-82895958D01*
X86579723Y-82927577D01*
X86570945Y-82960633D01*
X86562870Y-82995126D01*
X86555497Y-83031055D01*
X86548826Y-83068421D01*
X86542857Y-83107225D01*
X86537591Y-83147465D01*
X86533026Y-83189141D01*
X86529164Y-83232255D01*
X86526004Y-83276805D01*
X86523547Y-83322793D01*
X86521791Y-83370217D01*
X86520738Y-83419078D01*
X86520387Y-83469376D01*
X86520387Y-83960304D01*
X86410478Y-83960304D01*
X86410478Y-83401965D01*
X86410964Y-83345055D01*
X86412424Y-83289731D01*
X86414857Y-83235993D01*
X86418263Y-83183840D01*
X86422642Y-83133274D01*
X86427994Y-83084292D01*
X86434320Y-83036897D01*
X86441618Y-82991087D01*
X86449890Y-82946863D01*
X86459135Y-82904224D01*
X86469353Y-82863172D01*
X86480545Y-82823704D01*
X86492709Y-82785823D01*
X86505847Y-82749527D01*
X86519957Y-82714817D01*
X86535041Y-82681692D01*
X86551055Y-82650371D01*
X86567953Y-82621071D01*
X86585737Y-82593791D01*
X86604406Y-82568532D01*
X86623961Y-82545293D01*
X86644401Y-82524076D01*
X86665727Y-82504879D01*
X86687937Y-82487703D01*
X86711034Y-82472547D01*
X86735015Y-82459412D01*
X86759882Y-82448298D01*
X86785635Y-82439205D01*
X86812272Y-82432133D01*
X86839795Y-82427081D01*
X86868204Y-82424050D01*
X86897498Y-82423039D01*
X86932465Y-82424264D01*
G37*
G36*
X87368488Y-79452446D02*
G01*
X87401852Y-79454309D01*
X87434784Y-79457415D01*
X87467286Y-79461763D01*
X87499356Y-79467353D01*
X87530995Y-79474185D01*
X87562203Y-79482259D01*
X87592979Y-79491576D01*
X87623325Y-79502134D01*
X87653239Y-79513935D01*
X87682721Y-79526978D01*
X87711773Y-79541264D01*
X87740393Y-79556791D01*
X87768582Y-79573561D01*
X87796340Y-79591573D01*
X87823667Y-79610827D01*
X87850411Y-79631100D01*
X87876423Y-79652352D01*
X87901702Y-79674583D01*
X87926249Y-79697793D01*
X87950062Y-79721981D01*
X87973143Y-79747149D01*
X87995491Y-79773295D01*
X88017107Y-79800421D01*
X88037990Y-79828525D01*
X88058140Y-79857608D01*
X88077557Y-79887670D01*
X88096242Y-79918711D01*
X88114193Y-79950730D01*
X88131413Y-79983729D01*
X88147899Y-80017706D01*
X88163653Y-80052662D01*
X88178500Y-80088392D01*
X88192389Y-80124687D01*
X88205321Y-80161550D01*
X88217295Y-80198979D01*
X88228310Y-80236975D01*
X88238368Y-80275538D01*
X88247468Y-80314667D01*
X88255610Y-80354363D01*
X88262794Y-80394626D01*
X88269021Y-80435456D01*
X88274289Y-80476852D01*
X88278599Y-80518815D01*
X88281952Y-80561345D01*
X88284347Y-80604441D01*
X88285784Y-80648105D01*
X88286263Y-80692334D01*
X88285786Y-80739678D01*
X88284354Y-80786273D01*
X88281969Y-80832117D01*
X88278630Y-80877211D01*
X88274337Y-80921555D01*
X88269089Y-80965150D01*
X88262888Y-81007994D01*
X88255732Y-81050089D01*
X88247623Y-81091434D01*
X88238559Y-81132029D01*
X88228541Y-81171874D01*
X88217569Y-81210969D01*
X88205643Y-81249314D01*
X88192763Y-81286909D01*
X88178929Y-81323755D01*
X88164141Y-81359850D01*
X88148508Y-81394967D01*
X88132138Y-81429059D01*
X88115031Y-81462126D01*
X88097188Y-81494168D01*
X88078608Y-81525186D01*
X88059292Y-81555180D01*
X88039240Y-81584148D01*
X88018450Y-81612092D01*
X87996924Y-81639011D01*
X87974662Y-81664906D01*
X87951663Y-81689775D01*
X87927928Y-81713621D01*
X87903456Y-81736441D01*
X87878247Y-81758237D01*
X87852302Y-81779008D01*
X87825621Y-81798755D01*
X87798344Y-81817299D01*
X87770613Y-81834647D01*
X87742427Y-81850798D01*
X87713788Y-81865753D01*
X87684694Y-81879512D01*
X87655147Y-81892074D01*
X87625145Y-81903440D01*
X87594689Y-81913610D01*
X87563779Y-81922583D01*
X87532415Y-81930359D01*
X87500596Y-81936940D01*
X87468324Y-81942324D01*
X87435597Y-81946511D01*
X87402416Y-81949502D01*
X87368782Y-81951297D01*
X87334692Y-81951895D01*
X87300773Y-81951271D01*
X87267281Y-81949399D01*
X87234217Y-81946279D01*
X87201580Y-81941911D01*
X87169371Y-81936296D01*
X87137588Y-81929432D01*
X87106234Y-81921321D01*
X87075307Y-81911961D01*
X87044807Y-81901354D01*
X87014734Y-81889498D01*
X86985089Y-81876395D01*
X86955872Y-81862044D01*
X86927082Y-81846445D01*
X86898719Y-81829598D01*
X86870784Y-81811503D01*
X86843276Y-81792160D01*
X86816356Y-81771707D01*
X86790184Y-81750280D01*
X86764759Y-81727880D01*
X86740083Y-81704507D01*
X86716155Y-81680161D01*
X86692975Y-81654842D01*
X86670543Y-81628550D01*
X86648859Y-81601284D01*
X86627922Y-81573046D01*
X86607734Y-81543834D01*
X86588294Y-81513649D01*
X86569602Y-81482491D01*
X86551658Y-81450359D01*
X86534461Y-81417255D01*
X86518013Y-81383177D01*
X86502313Y-81348127D01*
X86487406Y-81312289D01*
X86473462Y-81275850D01*
X86460479Y-81238810D01*
X86448457Y-81201169D01*
X86437398Y-81162927D01*
X86427300Y-81124083D01*
X86418164Y-81084639D01*
X86409989Y-81044594D01*
X86402776Y-81003947D01*
X86396525Y-80962700D01*
X86391236Y-80920851D01*
X86386908Y-80878402D01*
X86383542Y-80835351D01*
X86381138Y-80791699D01*
X86379695Y-80747447D01*
X86379214Y-80702593D01*
X86489124Y-80702593D01*
X86489513Y-80738760D01*
X86490681Y-80774537D01*
X86492627Y-80809926D01*
X86495352Y-80844925D01*
X86498855Y-80879535D01*
X86503137Y-80913756D01*
X86508198Y-80947587D01*
X86514036Y-80981030D01*
X86520654Y-81014082D01*
X86528050Y-81046746D01*
X86536224Y-81079021D01*
X86545177Y-81110906D01*
X86554909Y-81142402D01*
X86565419Y-81173508D01*
X86576708Y-81204225D01*
X86588775Y-81234554D01*
X86601590Y-81264298D01*
X86615122Y-81293263D01*
X86629373Y-81321451D01*
X86644340Y-81348859D01*
X86660025Y-81375489D01*
X86676427Y-81401341D01*
X86693547Y-81426414D01*
X86711385Y-81450709D01*
X86729940Y-81474225D01*
X86749212Y-81496962D01*
X86769202Y-81518921D01*
X86789909Y-81540101D01*
X86811333Y-81560503D01*
X86833476Y-81580127D01*
X86856335Y-81598972D01*
X86879912Y-81617038D01*
X86904129Y-81634074D01*
X86928906Y-81650011D01*
X86954244Y-81664848D01*
X86980143Y-81678587D01*
X87006604Y-81691227D01*
X87033625Y-81702767D01*
X87061207Y-81713209D01*
X87089351Y-81722551D01*
X87118055Y-81730794D01*
X87147320Y-81737938D01*
X87177146Y-81743983D01*
X87207534Y-81748929D01*
X87238482Y-81752776D01*
X87269991Y-81755524D01*
X87302061Y-81757172D01*
X87334692Y-81757722D01*
X87367675Y-81757166D01*
X87400066Y-81755501D01*
X87431865Y-81752724D01*
X87463073Y-81748837D01*
X87493689Y-81743840D01*
X87523714Y-81737732D01*
X87553147Y-81730513D01*
X87581988Y-81722184D01*
X87610238Y-81712745D01*
X87637897Y-81702195D01*
X87664964Y-81690534D01*
X87691440Y-81677763D01*
X87717324Y-81663881D01*
X87742616Y-81648889D01*
X87767317Y-81632786D01*
X87791427Y-81615572D01*
X87814819Y-81597414D01*
X87837489Y-81578478D01*
X87859439Y-81558763D01*
X87880667Y-81538270D01*
X87901174Y-81516998D01*
X87920959Y-81494947D01*
X87940024Y-81472118D01*
X87958367Y-81448510D01*
X87975988Y-81424124D01*
X87992889Y-81398960D01*
X88009068Y-81373016D01*
X88024526Y-81346295D01*
X88039262Y-81318794D01*
X88053278Y-81290516D01*
X88066572Y-81261458D01*
X88079145Y-81231623D01*
X88090916Y-81201094D01*
X88101928Y-81170142D01*
X88112180Y-81138766D01*
X88121673Y-81106967D01*
X88130407Y-81074744D01*
X88138381Y-81042098D01*
X88145596Y-81009028D01*
X88152051Y-80975534D01*
X88157747Y-80941617D01*
X88162683Y-80907276D01*
X88166860Y-80872511D01*
X88170278Y-80837323D01*
X88172936Y-80801711D01*
X88174834Y-80765676D01*
X88175974Y-80729217D01*
X88176353Y-80692334D01*
X88175974Y-80656185D01*
X88174834Y-80620458D01*
X88172936Y-80585156D01*
X88170278Y-80550277D01*
X88166860Y-80515821D01*
X88162683Y-80481789D01*
X88157747Y-80448181D01*
X88152051Y-80414997D01*
X88145596Y-80382236D01*
X88138381Y-80349898D01*
X88130407Y-80317985D01*
X88121673Y-80286494D01*
X88112180Y-80255428D01*
X88101928Y-80224785D01*
X88090916Y-80194566D01*
X88079145Y-80164770D01*
X88066572Y-80135475D01*
X88053278Y-80106942D01*
X88039262Y-80079169D01*
X88024526Y-80052159D01*
X88009068Y-80025909D01*
X87992889Y-80000421D01*
X87975988Y-79975694D01*
X87958367Y-79951729D01*
X87940024Y-79928525D01*
X87920959Y-79906082D01*
X87901174Y-79884401D01*
X87880667Y-79863481D01*
X87859439Y-79843322D01*
X87837489Y-79823925D01*
X87814819Y-79805289D01*
X87791427Y-79787415D01*
X87767317Y-79770468D01*
X87742616Y-79754614D01*
X87717324Y-79739853D01*
X87691440Y-79726186D01*
X87664964Y-79713612D01*
X87637897Y-79702132D01*
X87610238Y-79691745D01*
X87581988Y-79682451D01*
X87553147Y-79674251D01*
X87523714Y-79667144D01*
X87493689Y-79661131D01*
X87463073Y-79656211D01*
X87431865Y-79652384D01*
X87400066Y-79649650D01*
X87367675Y-79648010D01*
X87334692Y-79647464D01*
X87302061Y-79648010D01*
X87269991Y-79649650D01*
X87238482Y-79652384D01*
X87207534Y-79656211D01*
X87177146Y-79661131D01*
X87147320Y-79667144D01*
X87118055Y-79674251D01*
X87089351Y-79682451D01*
X87061207Y-79691745D01*
X87033625Y-79702132D01*
X87006604Y-79713612D01*
X86980143Y-79726186D01*
X86954244Y-79739853D01*
X86928906Y-79754614D01*
X86904129Y-79770468D01*
X86879912Y-79787415D01*
X86856335Y-79805301D01*
X86833476Y-79823971D01*
X86811333Y-79843426D01*
X86789909Y-79863664D01*
X86769202Y-79884687D01*
X86749212Y-79906495D01*
X86729940Y-79929086D01*
X86711385Y-79952462D01*
X86693547Y-79976622D01*
X86676427Y-80001566D01*
X86660025Y-80027295D01*
X86644340Y-80053807D01*
X86629373Y-80081104D01*
X86615122Y-80109186D01*
X86601590Y-80138051D01*
X86588775Y-80167701D01*
X86576708Y-80197955D01*
X86565419Y-80228632D01*
X86554909Y-80259733D01*
X86545177Y-80291257D01*
X86536224Y-80323205D01*
X86528050Y-80355577D01*
X86520654Y-80388372D01*
X86514036Y-80421591D01*
X86508198Y-80455234D01*
X86503137Y-80489300D01*
X86498855Y-80523790D01*
X86495352Y-80558703D01*
X86492627Y-80594040D01*
X86490681Y-80629801D01*
X86489513Y-80665985D01*
X86489124Y-80702593D01*
X86379214Y-80702593D01*
X86379695Y-80655878D01*
X86381138Y-80609891D01*
X86383542Y-80564631D01*
X86386908Y-80520097D01*
X86391236Y-80476291D01*
X86396525Y-80433212D01*
X86402776Y-80390860D01*
X86409989Y-80349234D01*
X86418164Y-80308336D01*
X86427300Y-80268165D01*
X86437398Y-80228721D01*
X86448457Y-80190003D01*
X86460479Y-80152013D01*
X86473462Y-80114750D01*
X86487406Y-80078213D01*
X86502313Y-80042404D01*
X86518007Y-80007468D01*
X86534438Y-79973551D01*
X86551606Y-79940652D01*
X86569510Y-79908773D01*
X86588151Y-79877912D01*
X86607528Y-79848071D01*
X86627642Y-79819248D01*
X86648492Y-79791445D01*
X86670079Y-79764660D01*
X86692402Y-79738894D01*
X86715462Y-79714148D01*
X86739259Y-79690420D01*
X86763792Y-79667711D01*
X86789062Y-79646021D01*
X86815068Y-79625350D01*
X86841810Y-79605698D01*
X86869152Y-79587065D01*
X86896956Y-79569634D01*
X86925221Y-79553405D01*
X86953948Y-79538379D01*
X86983137Y-79524554D01*
X87012788Y-79511932D01*
X87042900Y-79500511D01*
X87073475Y-79490293D01*
X87104511Y-79481277D01*
X87136009Y-79473463D01*
X87167968Y-79466852D01*
X87200389Y-79461442D01*
X87233273Y-79457235D01*
X87266617Y-79454229D01*
X87300424Y-79452426D01*
X87334692Y-79451825D01*
X87368488Y-79452446D01*
G37*
G36*
X86410478Y-78872969D02*
G01*
X87808035Y-78295579D01*
X87831127Y-78286085D01*
X87853876Y-78276654D01*
X87876282Y-78267286D01*
X87898344Y-78257981D01*
X87920062Y-78248739D01*
X87941437Y-78239560D01*
X87962469Y-78230444D01*
X87983157Y-78221391D01*
X88003502Y-78212400D01*
X88023503Y-78203473D01*
X88043161Y-78194609D01*
X88062475Y-78185808D01*
X88081446Y-78177069D01*
X88109258Y-78164080D01*
X88136297Y-78151232D01*
X88136297Y-78147568D01*
X88115422Y-78140613D01*
X88093645Y-78132937D01*
X88070966Y-78124539D01*
X88047385Y-78115420D01*
X88022903Y-78105579D01*
X87997520Y-78095018D01*
X87971235Y-78083735D01*
X87944048Y-78071731D01*
X87915959Y-78059005D01*
X87896733Y-78050121D01*
X87877106Y-78040916D01*
X87867142Y-78036193D01*
X87805104Y-78009083D01*
X86410478Y-77481518D01*
X86410478Y-77281483D01*
X87805104Y-76750255D01*
X87840699Y-76736954D01*
X87874332Y-76724346D01*
X87906003Y-76712431D01*
X87935713Y-76701208D01*
X87963461Y-76690678D01*
X87989248Y-76680840D01*
X88013073Y-76671696D01*
X88034937Y-76663243D01*
X88054839Y-76655484D01*
X88081014Y-76645143D01*
X88102775Y-76636361D01*
X88124925Y-76627076D01*
X88139228Y-76620562D01*
X88139228Y-76616166D01*
X88113663Y-76603721D01*
X88088746Y-76591665D01*
X88064479Y-76579999D01*
X88040860Y-76568721D01*
X88017889Y-76557834D01*
X87995568Y-76547335D01*
X87973895Y-76537226D01*
X87952871Y-76527505D01*
X87932496Y-76518175D01*
X87912769Y-76509233D01*
X87893692Y-76500681D01*
X87866292Y-76488582D01*
X87840351Y-76477359D01*
X87815871Y-76467012D01*
X87808035Y-76463758D01*
X86410478Y-75884170D01*
X86410478Y-75690729D01*
X88255000Y-76515049D01*
X88255000Y-76725342D01*
X86912641Y-77257303D01*
X86880134Y-77270315D01*
X86848924Y-77282605D01*
X86819012Y-77294174D01*
X86790397Y-77305022D01*
X86763080Y-77315149D01*
X86737061Y-77324554D01*
X86712339Y-77333238D01*
X86688914Y-77341200D01*
X86666787Y-77348442D01*
X86645958Y-77354962D01*
X86626426Y-77360761D01*
X86599562Y-77368107D01*
X86575616Y-77373830D01*
X86554590Y-77377930D01*
X86548230Y-77378936D01*
X86548230Y-77389194D01*
X86569030Y-77394404D01*
X86592595Y-77400967D01*
X86618924Y-77408881D01*
X86648019Y-77418148D01*
X86668951Y-77425078D01*
X86691113Y-77432608D01*
X86714503Y-77440740D01*
X86739122Y-77449473D01*
X86764969Y-77458806D01*
X86792046Y-77468741D01*
X86820351Y-77479277D01*
X86849886Y-77490414D01*
X86880649Y-77502152D01*
X86912641Y-77514491D01*
X88255000Y-78046452D01*
X88255000Y-78252348D01*
X86410478Y-79068608D01*
X86410478Y-78872969D01*
G37*
G36*
X86410478Y-75225447D02*
G01*
X86410478Y-73655210D01*
X86520387Y-73655210D01*
X86520387Y-75044463D01*
X87254581Y-75044463D01*
X87254581Y-73773179D01*
X87364490Y-73773179D01*
X87364490Y-75044463D01*
X88145090Y-75044463D01*
X88145090Y-73575342D01*
X88255000Y-73575342D01*
X88255000Y-75225447D01*
X86410478Y-75225447D01*
G37*
G36*
X88255000Y-71361036D02*
G01*
X87458279Y-72323842D01*
X87458279Y-72793521D01*
X88255000Y-72793521D01*
X88255000Y-72974505D01*
X86410478Y-72974505D01*
X86410478Y-72793521D01*
X86520387Y-72793521D01*
X87348370Y-72793521D01*
X87348370Y-72383193D01*
X87347964Y-72327935D01*
X87346744Y-72274451D01*
X87344712Y-72222742D01*
X87341867Y-72172808D01*
X87338209Y-72124648D01*
X87333738Y-72078263D01*
X87328455Y-72033653D01*
X87322358Y-71990817D01*
X87315449Y-71949755D01*
X87307727Y-71910468D01*
X87299191Y-71872956D01*
X87289843Y-71837218D01*
X87279682Y-71803255D01*
X87268709Y-71771067D01*
X87256922Y-71740653D01*
X87244323Y-71712013D01*
X87230796Y-71685040D01*
X87216227Y-71659807D01*
X87200616Y-71636313D01*
X87183964Y-71614561D01*
X87166270Y-71594548D01*
X87147534Y-71576275D01*
X87127756Y-71559743D01*
X87106936Y-71544951D01*
X87085074Y-71531900D01*
X87062171Y-71520588D01*
X87038226Y-71511017D01*
X87013238Y-71503186D01*
X86987209Y-71497095D01*
X86960138Y-71492744D01*
X86932026Y-71490134D01*
X86902871Y-71489264D01*
X86876983Y-71490183D01*
X86852076Y-71492939D01*
X86828150Y-71497533D01*
X86805204Y-71503964D01*
X86783240Y-71512233D01*
X86762256Y-71522340D01*
X86742253Y-71534284D01*
X86723230Y-71548065D01*
X86705189Y-71563685D01*
X86688128Y-71581141D01*
X86672048Y-71600436D01*
X86656949Y-71621567D01*
X86642831Y-71644537D01*
X86629693Y-71669343D01*
X86617536Y-71695988D01*
X86606360Y-71724470D01*
X86595949Y-71754555D01*
X86586210Y-71786191D01*
X86577143Y-71819378D01*
X86568747Y-71854117D01*
X86561023Y-71890407D01*
X86553970Y-71928249D01*
X86547589Y-71967641D01*
X86541880Y-72008585D01*
X86536843Y-72051081D01*
X86532477Y-72095127D01*
X86528783Y-72140725D01*
X86525760Y-72187875D01*
X86523409Y-72236576D01*
X86521730Y-72286828D01*
X86520723Y-72338631D01*
X86520387Y-72391986D01*
X86520387Y-72793521D01*
X86410478Y-72793521D01*
X86410478Y-72370736D01*
X86410533Y-72339029D01*
X86410699Y-72308203D01*
X86410976Y-72278258D01*
X86411598Y-72234994D01*
X86412470Y-72193714D01*
X86413590Y-72154417D01*
X86414960Y-72117104D01*
X86416578Y-72081774D01*
X86418446Y-72048427D01*
X86420563Y-72017065D01*
X86422928Y-71987685D01*
X86424644Y-71969201D01*
X86430437Y-71927998D01*
X86436827Y-71888103D01*
X86443813Y-71849516D01*
X86451396Y-71812237D01*
X86459575Y-71776266D01*
X86468350Y-71741603D01*
X86477721Y-71708248D01*
X86487689Y-71676201D01*
X86498253Y-71645463D01*
X86509413Y-71616032D01*
X86521170Y-71587909D01*
X86533522Y-71561094D01*
X86546472Y-71535588D01*
X86560017Y-71511389D01*
X86574159Y-71488498D01*
X86588897Y-71466916D01*
X86604231Y-71446641D01*
X86620162Y-71427675D01*
X86636689Y-71410016D01*
X86653812Y-71393666D01*
X86671532Y-71378623D01*
X86689847Y-71364889D01*
X86708760Y-71352463D01*
X86728268Y-71341344D01*
X86748373Y-71331534D01*
X86769074Y-71323032D01*
X86790371Y-71315838D01*
X86812265Y-71309952D01*
X86834755Y-71305373D01*
X86857841Y-71302103D01*
X86881523Y-71300141D01*
X86905802Y-71299487D01*
X86934184Y-71300349D01*
X86961932Y-71302933D01*
X86989047Y-71307241D01*
X87015528Y-71313272D01*
X87041376Y-71321025D01*
X87066590Y-71330502D01*
X87091171Y-71341702D01*
X87115118Y-71354625D01*
X87138432Y-71369271D01*
X87161112Y-71385640D01*
X87183159Y-71403732D01*
X87204572Y-71423547D01*
X87225352Y-71445086D01*
X87245498Y-71468347D01*
X87265011Y-71493331D01*
X87283890Y-71520039D01*
X87301863Y-71548154D01*
X87318779Y-71577363D01*
X87334637Y-71607665D01*
X87349439Y-71639061D01*
X87363183Y-71671550D01*
X87375870Y-71705133D01*
X87387500Y-71739808D01*
X87398073Y-71775578D01*
X87407589Y-71812440D01*
X87416048Y-71850396D01*
X87423450Y-71889445D01*
X87429795Y-71929588D01*
X87435082Y-71970824D01*
X87439312Y-72013153D01*
X87442486Y-72056576D01*
X87444602Y-72101092D01*
X87449975Y-72101092D01*
X88255000Y-71138287D01*
X88255000Y-71361036D01*
G37*
G36*
X87629738Y-70908943D02*
G01*
X87514455Y-70908943D01*
X87514455Y-70001825D01*
X87629738Y-70001825D01*
X87629738Y-70908943D01*
G37*
G36*
X87344446Y-67282932D02*
G01*
X87366196Y-67283720D01*
X87387730Y-67285033D01*
X87409049Y-67286871D01*
X87430152Y-67289235D01*
X87451040Y-67292123D01*
X87471712Y-67295537D01*
X87492168Y-67299476D01*
X87512409Y-67303941D01*
X87532434Y-67308930D01*
X87552243Y-67314445D01*
X87571837Y-67320485D01*
X87591215Y-67327050D01*
X87610378Y-67334141D01*
X87629325Y-67341756D01*
X87666572Y-67358563D01*
X87702956Y-67377471D01*
X87738478Y-67398480D01*
X87773138Y-67421589D01*
X87806935Y-67446800D01*
X87839870Y-67474111D01*
X87871942Y-67503523D01*
X87903151Y-67535036D01*
X87918433Y-67551581D01*
X87948091Y-67585965D01*
X87976372Y-67621888D01*
X88003275Y-67659352D01*
X88028800Y-67698355D01*
X88052948Y-67738899D01*
X88075718Y-67780982D01*
X88097110Y-67824605D01*
X88117124Y-67869768D01*
X88135761Y-67916471D01*
X88153020Y-67964714D01*
X88168902Y-68014496D01*
X88183406Y-68065819D01*
X88196532Y-68118681D01*
X88208280Y-68173083D01*
X88218651Y-68229026D01*
X88223320Y-68257574D01*
X88227644Y-68286508D01*
X88232533Y-68325950D01*
X88236941Y-68367068D01*
X88240868Y-68409859D01*
X88243219Y-68439317D01*
X88245356Y-68469519D01*
X88247279Y-68500466D01*
X88248989Y-68532156D01*
X88250485Y-68564591D01*
X88251767Y-68597770D01*
X88252836Y-68631693D01*
X88253691Y-68666360D01*
X88254332Y-68701771D01*
X88254759Y-68737927D01*
X88254973Y-68774827D01*
X88255000Y-68793556D01*
X88255000Y-69392928D01*
X86410478Y-69392928D01*
X86410478Y-69211944D01*
X86520387Y-69211944D01*
X88145090Y-69211944D01*
X88145090Y-68915189D01*
X88145047Y-68873842D01*
X88144918Y-68834156D01*
X88144704Y-68796132D01*
X88144403Y-68759770D01*
X88144017Y-68725069D01*
X88143545Y-68692030D01*
X88142986Y-68660652D01*
X88142342Y-68630936D01*
X88141350Y-68593899D01*
X88140205Y-68559815D01*
X88138778Y-68527278D01*
X88136939Y-68495244D01*
X88134687Y-68463713D01*
X88132023Y-68432687D01*
X88128947Y-68402164D01*
X88125459Y-68372145D01*
X88121559Y-68342630D01*
X88117247Y-68313618D01*
X88109442Y-68265281D01*
X88100440Y-68218272D01*
X88090239Y-68172591D01*
X88078839Y-68128238D01*
X88066242Y-68085213D01*
X88052446Y-68043516D01*
X88037452Y-68003148D01*
X88021259Y-67964107D01*
X88003868Y-67926394D01*
X87985279Y-67890010D01*
X87965492Y-67854953D01*
X87944506Y-67821225D01*
X87922322Y-67788825D01*
X87898939Y-67757752D01*
X87874358Y-67728008D01*
X87848579Y-67699592D01*
X87821747Y-67672618D01*
X87794129Y-67647385D01*
X87765724Y-67623892D01*
X87736533Y-67602139D01*
X87706556Y-67582126D01*
X87675793Y-67563854D01*
X87644244Y-67547322D01*
X87611908Y-67532530D01*
X87578786Y-67519478D01*
X87544879Y-67508167D01*
X87510185Y-67498595D01*
X87474705Y-67490764D01*
X87438438Y-67484674D01*
X87401386Y-67480323D01*
X87363547Y-67477713D01*
X87324923Y-67476842D01*
X87287239Y-67477644D01*
X87250391Y-67480048D01*
X87214378Y-67484055D01*
X87179201Y-67489665D01*
X87144860Y-67496878D01*
X87111355Y-67505694D01*
X87078686Y-67516112D01*
X87046852Y-67528133D01*
X87015854Y-67541758D01*
X86985692Y-67556985D01*
X86956366Y-67573815D01*
X86927875Y-67592247D01*
X86900221Y-67612283D01*
X86873402Y-67633921D01*
X86847418Y-67657162D01*
X86822271Y-67682006D01*
X86797980Y-67708362D01*
X86774689Y-67736137D01*
X86752398Y-67765331D01*
X86731107Y-67795946D01*
X86710816Y-67827980D01*
X86691525Y-67861433D01*
X86673233Y-67896307D01*
X86655942Y-67932600D01*
X86639650Y-67970312D01*
X86624358Y-68009445D01*
X86610066Y-68049996D01*
X86596774Y-68091968D01*
X86584481Y-68135359D01*
X86573189Y-68180170D01*
X86562897Y-68226401D01*
X86553604Y-68274051D01*
X86548589Y-68304368D01*
X86544048Y-68335600D01*
X86539980Y-68367749D01*
X86536385Y-68400813D01*
X86533263Y-68434793D01*
X86530614Y-68469690D01*
X86528439Y-68505502D01*
X86526737Y-68542230D01*
X86525249Y-68580664D01*
X86524263Y-68611367D01*
X86523388Y-68643681D01*
X86522626Y-68677605D01*
X86521974Y-68713139D01*
X86521435Y-68750282D01*
X86521007Y-68789036D01*
X86520691Y-68829400D01*
X86520486Y-68871374D01*
X86520393Y-68914957D01*
X86520387Y-68929843D01*
X86520387Y-69211944D01*
X86410478Y-69211944D01*
X86410478Y-68852907D01*
X86410584Y-68807933D01*
X86410905Y-68764235D01*
X86411439Y-68721814D01*
X86412187Y-68680670D01*
X86413149Y-68640802D01*
X86414324Y-68602210D01*
X86415713Y-68564896D01*
X86417316Y-68528857D01*
X86419133Y-68494096D01*
X86421163Y-68460611D01*
X86423407Y-68428402D01*
X86425865Y-68397470D01*
X86428536Y-68367815D01*
X86432944Y-68325725D01*
X86437833Y-68286508D01*
X86443407Y-68254936D01*
X86449261Y-68223876D01*
X86455394Y-68193329D01*
X86461807Y-68163295D01*
X86468499Y-68133772D01*
X86475471Y-68104762D01*
X86482722Y-68076265D01*
X86490253Y-68048279D01*
X86498064Y-68020806D01*
X86506154Y-67993845D01*
X86523173Y-67941461D01*
X86541310Y-67891126D01*
X86560565Y-67842840D01*
X86580938Y-67796604D01*
X86602429Y-67752417D01*
X86625039Y-67710279D01*
X86648767Y-67670191D01*
X86673613Y-67632152D01*
X86699577Y-67596163D01*
X86726659Y-67562223D01*
X86754860Y-67530332D01*
X86783982Y-67500341D01*
X86813951Y-67472286D01*
X86844768Y-67446165D01*
X86876432Y-67421979D01*
X86908943Y-67399729D01*
X86942301Y-67379412D01*
X86976507Y-67361031D01*
X87011559Y-67344585D01*
X87047459Y-67330074D01*
X87084206Y-67317497D01*
X87121800Y-67306855D01*
X87160242Y-67298148D01*
X87179780Y-67294520D01*
X87199531Y-67291376D01*
X87219493Y-67288716D01*
X87239667Y-67286539D01*
X87260052Y-67284846D01*
X87280650Y-67283637D01*
X87301459Y-67282911D01*
X87322480Y-67282669D01*
X87344446Y-67282932D01*
G37*
G36*
X86410478Y-66646661D02*
G01*
X86410478Y-66465677D01*
X88255000Y-66465677D01*
X88255000Y-66646661D01*
X86410478Y-66646661D01*
G37*
G36*
X88187100Y-65823074D02*
G01*
X88055209Y-65823074D01*
X88065429Y-65795803D01*
X88075573Y-65764547D01*
X88085640Y-65729308D01*
X88093140Y-65700263D01*
X88100598Y-65668978D01*
X88108013Y-65635451D01*
X88115384Y-65599684D01*
X88122713Y-65561675D01*
X88129999Y-65521425D01*
X88134832Y-65493346D01*
X88141729Y-65451164D01*
X88147947Y-65410348D01*
X88153487Y-65370896D01*
X88158348Y-65332810D01*
X88162531Y-65296089D01*
X88166036Y-65260734D01*
X88168862Y-65226743D01*
X88171010Y-65194118D01*
X88172480Y-65162859D01*
X88173272Y-65132964D01*
X88173422Y-65113793D01*
X88173064Y-65068095D01*
X88171987Y-65023690D01*
X88170194Y-64980579D01*
X88167683Y-64938762D01*
X88164454Y-64898239D01*
X88160508Y-64859009D01*
X88155845Y-64821074D01*
X88150464Y-64784431D01*
X88144365Y-64749083D01*
X88137549Y-64715028D01*
X88130016Y-64682267D01*
X88121765Y-64650800D01*
X88112797Y-64620627D01*
X88103111Y-64591747D01*
X88092708Y-64564161D01*
X88081587Y-64537868D01*
X88069602Y-64513024D01*
X88056606Y-64489783D01*
X88042598Y-64468145D01*
X88027579Y-64448109D01*
X88011549Y-64429676D01*
X87994507Y-64412846D01*
X87976454Y-64397619D01*
X87957390Y-64383995D01*
X87937314Y-64371974D01*
X87916227Y-64361556D01*
X87894129Y-64352740D01*
X87871019Y-64345527D01*
X87846898Y-64339917D01*
X87821766Y-64335910D01*
X87795623Y-64333506D01*
X87768468Y-64332704D01*
X87748011Y-64333310D01*
X87728225Y-64335126D01*
X87702885Y-64339431D01*
X87678735Y-64345888D01*
X87655776Y-64354497D01*
X87634008Y-64365259D01*
X87613431Y-64378174D01*
X87594044Y-64393240D01*
X87584797Y-64401581D01*
X87567051Y-64419601D01*
X87550206Y-64439225D01*
X87534262Y-64460451D01*
X87519218Y-64483280D01*
X87505075Y-64507712D01*
X87491832Y-64533747D01*
X87479490Y-64561384D01*
X87468049Y-64590625D01*
X87456867Y-64623449D01*
X87448231Y-64651959D01*
X87439379Y-64683804D01*
X87430313Y-64718986D01*
X87421032Y-64757504D01*
X87411537Y-64799357D01*
X87405087Y-64829113D01*
X87398542Y-64860351D01*
X87391902Y-64893072D01*
X87385166Y-64927276D01*
X87378335Y-64962962D01*
X87371409Y-65000131D01*
X87367909Y-65019271D01*
X87362235Y-65052381D01*
X87356567Y-65084667D01*
X87350908Y-65116129D01*
X87345256Y-65146766D01*
X87339612Y-65176579D01*
X87333975Y-65205567D01*
X87328346Y-65233731D01*
X87319917Y-65274432D01*
X87311505Y-65313278D01*
X87303110Y-65350270D01*
X87294732Y-65385406D01*
X87286371Y-65418688D01*
X87278028Y-65450115D01*
X87269255Y-65480164D01*
X87259607Y-65509312D01*
X87249082Y-65537558D01*
X87237682Y-65564902D01*
X87225406Y-65591344D01*
X87212254Y-65616886D01*
X87198227Y-65641525D01*
X87183323Y-65665263D01*
X87167544Y-65688099D01*
X87150888Y-65710034D01*
X87139298Y-65724156D01*
X87121050Y-65744060D01*
X87101660Y-65762006D01*
X87081128Y-65777994D01*
X87059454Y-65792025D01*
X87036637Y-65804098D01*
X87012679Y-65814213D01*
X86987579Y-65822370D01*
X86961337Y-65828570D01*
X86933952Y-65832811D01*
X86905426Y-65835095D01*
X86885774Y-65835531D01*
X86857490Y-65834560D01*
X86829911Y-65831649D01*
X86803039Y-65826798D01*
X86776872Y-65820006D01*
X86751412Y-65811273D01*
X86726658Y-65800600D01*
X86702609Y-65787986D01*
X86679267Y-65773432D01*
X86656630Y-65756937D01*
X86634700Y-65738501D01*
X86613476Y-65718125D01*
X86592957Y-65695808D01*
X86573145Y-65671551D01*
X86554039Y-65645353D01*
X86535639Y-65617215D01*
X86517944Y-65587136D01*
X86501145Y-65555488D01*
X86485430Y-65522644D01*
X86470798Y-65488604D01*
X86457250Y-65453367D01*
X86444786Y-65416934D01*
X86433406Y-65379304D01*
X86423109Y-65340478D01*
X86413897Y-65300456D01*
X86405768Y-65259237D01*
X86398723Y-65216821D01*
X86392762Y-65173210D01*
X86387885Y-65128402D01*
X86384092Y-65082397D01*
X86381382Y-65035196D01*
X86379756Y-64986799D01*
X86379214Y-64937205D01*
X86379413Y-64904281D01*
X86380008Y-64871454D01*
X86381000Y-64838725D01*
X86382390Y-64806093D01*
X86384176Y-64773558D01*
X86386359Y-64741120D01*
X86388938Y-64708780D01*
X86391915Y-64676537D01*
X86395289Y-64644392D01*
X86399059Y-64612343D01*
X86403227Y-64580392D01*
X86407791Y-64548539D01*
X86412752Y-64516782D01*
X86418110Y-64485123D01*
X86423865Y-64453562D01*
X86430017Y-64422097D01*
X86437826Y-64390999D01*
X86445683Y-64360903D01*
X86453587Y-64331808D01*
X86461540Y-64303716D01*
X86469539Y-64276625D01*
X86479202Y-64245438D01*
X86480819Y-64240381D01*
X86612711Y-64240381D01*
X86603292Y-64271155D01*
X86594331Y-64300831D01*
X86585829Y-64329407D01*
X86577784Y-64356884D01*
X86568372Y-64389685D01*
X86559676Y-64420769D01*
X86551695Y-64450136D01*
X86550184Y-64455803D01*
X86542860Y-64484650D01*
X86535845Y-64515323D01*
X86529140Y-64547820D01*
X86522745Y-64582141D01*
X86517853Y-64610912D01*
X86513159Y-64640851D01*
X86508663Y-64671958D01*
X86504404Y-64704015D01*
X86500664Y-64736804D01*
X86497443Y-64770326D01*
X86494741Y-64804581D01*
X86492558Y-64839569D01*
X86490894Y-64875290D01*
X86489750Y-64911743D01*
X86489124Y-64948929D01*
X86489553Y-64992724D01*
X86490841Y-65035082D01*
X86492988Y-65076003D01*
X86495993Y-65115487D01*
X86499857Y-65153535D01*
X86504580Y-65190146D01*
X86510161Y-65225319D01*
X86516601Y-65259056D01*
X86523900Y-65291357D01*
X86532057Y-65322220D01*
X86541073Y-65351646D01*
X86550948Y-65379636D01*
X86561681Y-65406189D01*
X86573273Y-65431305D01*
X86585724Y-65454984D01*
X86599033Y-65477226D01*
X86613054Y-65498078D01*
X86627640Y-65517584D01*
X86650578Y-65544320D01*
X86674786Y-65568030D01*
X86700266Y-65588713D01*
X86727016Y-65606370D01*
X86745556Y-65616459D01*
X86764660Y-65625203D01*
X86784329Y-65632602D01*
X86804563Y-65638656D01*
X86825362Y-65643364D01*
X86846726Y-65646727D01*
X86868654Y-65648745D01*
X86891147Y-65649418D01*
X86912417Y-65648761D01*
X86932810Y-65646790D01*
X86952327Y-65643506D01*
X86976988Y-65637083D01*
X87000092Y-65628324D01*
X87021639Y-65617230D01*
X87041629Y-65603801D01*
X87060061Y-65588036D01*
X87072864Y-65574679D01*
X87088763Y-65554999D01*
X87103730Y-65533692D01*
X87117767Y-65510760D01*
X87130872Y-65486202D01*
X87143046Y-65460019D01*
X87154289Y-65432209D01*
X87164600Y-65402774D01*
X87173981Y-65371713D01*
X87183071Y-65337699D01*
X87190119Y-65309618D01*
X87197365Y-65279335D01*
X87204808Y-65246850D01*
X87212449Y-65212162D01*
X87220287Y-65175271D01*
X87228323Y-65136178D01*
X87236556Y-65094883D01*
X87242154Y-65066129D01*
X87247841Y-65036396D01*
X87253615Y-65005685D01*
X87256535Y-64989962D01*
X87263038Y-64954908D01*
X87269480Y-64920822D01*
X87275860Y-64887703D01*
X87282180Y-64855552D01*
X87288439Y-64824368D01*
X87294637Y-64794152D01*
X87300773Y-64764903D01*
X87306849Y-64736621D01*
X87315848Y-64696012D01*
X87324709Y-64657581D01*
X87333433Y-64621326D01*
X87342020Y-64587247D01*
X87350469Y-64555346D01*
X87353255Y-64545196D01*
X87362062Y-64515350D01*
X87371814Y-64486265D01*
X87382510Y-64457940D01*
X87394150Y-64430375D01*
X87406736Y-64403569D01*
X87420265Y-64377524D01*
X87434739Y-64352238D01*
X87450158Y-64327713D01*
X87466522Y-64303947D01*
X87483829Y-64280941D01*
X87495893Y-64266026D01*
X87514925Y-64244813D01*
X87535202Y-64225686D01*
X87556725Y-64208646D01*
X87579492Y-64193692D01*
X87603505Y-64180825D01*
X87628763Y-64170044D01*
X87655265Y-64161350D01*
X87683013Y-64154743D01*
X87712006Y-64150222D01*
X87732026Y-64148367D01*
X87752600Y-64147440D01*
X87763094Y-64147324D01*
X87793566Y-64148320D01*
X87823186Y-64151308D01*
X87851955Y-64156288D01*
X87879873Y-64163261D01*
X87906940Y-64172225D01*
X87933156Y-64183182D01*
X87958521Y-64196131D01*
X87983035Y-64211071D01*
X88006698Y-64228004D01*
X88029510Y-64246929D01*
X88051471Y-64267846D01*
X88072581Y-64290756D01*
X88092839Y-64315657D01*
X88112247Y-64342550D01*
X88130804Y-64371436D01*
X88148510Y-64402314D01*
X88165191Y-64434937D01*
X88180795Y-64469244D01*
X88195324Y-64505233D01*
X88208777Y-64542906D01*
X88221153Y-64582261D01*
X88232453Y-64623300D01*
X88242677Y-64666021D01*
X88251824Y-64710426D01*
X88259896Y-64756513D01*
X88266891Y-64804284D01*
X88272810Y-64853737D01*
X88277653Y-64904874D01*
X88281420Y-64957693D01*
X88284110Y-65012196D01*
X88285724Y-65068381D01*
X88286263Y-65126249D01*
X88285962Y-65162798D01*
X88285060Y-65199631D01*
X88283558Y-65236747D01*
X88281454Y-65274146D01*
X88278749Y-65311829D01*
X88275443Y-65349794D01*
X88271536Y-65388044D01*
X88267028Y-65426576D01*
X88261919Y-65465392D01*
X88256209Y-65504492D01*
X88252069Y-65530715D01*
X88245604Y-65568894D01*
X88239217Y-65604844D01*
X88232907Y-65638566D01*
X88226675Y-65670060D01*
X88220520Y-65699325D01*
X88212433Y-65734880D01*
X88204484Y-65766473D01*
X88196672Y-65794105D01*
X88187100Y-65823074D01*
G37*
G36*
X86523318Y-62838671D02*
G01*
X86523318Y-63788287D01*
X86410478Y-63788287D01*
X86410478Y-61702942D01*
X86523318Y-61702942D01*
X86523318Y-62656954D01*
X88255000Y-62656954D01*
X88255000Y-62838671D01*
X86523318Y-62838671D01*
G37*
G36*
X88255000Y-59634449D02*
G01*
X87458279Y-60597254D01*
X87458279Y-61066933D01*
X88255000Y-61066933D01*
X88255000Y-61247917D01*
X86410478Y-61247917D01*
X86410478Y-61066933D01*
X86520387Y-61066933D01*
X87348370Y-61066933D01*
X87348370Y-60656605D01*
X87347964Y-60601347D01*
X87346744Y-60547864D01*
X87344712Y-60496155D01*
X87341867Y-60446221D01*
X87338209Y-60398061D01*
X87333738Y-60351676D01*
X87328455Y-60307065D01*
X87322358Y-60264229D01*
X87315449Y-60223168D01*
X87307727Y-60183881D01*
X87299191Y-60146369D01*
X87289843Y-60110631D01*
X87279682Y-60076668D01*
X87268709Y-60044479D01*
X87256922Y-60014065D01*
X87244323Y-59985426D01*
X87230796Y-59958452D01*
X87216227Y-59933219D01*
X87200616Y-59909726D01*
X87183964Y-59887973D01*
X87166270Y-59867960D01*
X87147534Y-59849688D01*
X87127756Y-59833156D01*
X87106936Y-59818364D01*
X87085074Y-59805312D01*
X87062171Y-59794001D01*
X87038226Y-59784429D01*
X87013238Y-59776598D01*
X86987209Y-59770507D01*
X86960138Y-59766157D01*
X86932026Y-59763547D01*
X86902871Y-59762676D01*
X86876983Y-59763595D01*
X86852076Y-59766351D01*
X86828150Y-59770945D01*
X86805204Y-59777377D01*
X86783240Y-59785646D01*
X86762256Y-59795752D01*
X86742253Y-59807696D01*
X86723230Y-59821478D01*
X86705189Y-59837097D01*
X86688128Y-59854554D01*
X86672048Y-59873848D01*
X86656949Y-59894980D01*
X86642831Y-59917949D01*
X86629693Y-59942756D01*
X86617536Y-59969400D01*
X86606360Y-59997882D01*
X86595949Y-60027967D01*
X86586210Y-60059603D01*
X86577143Y-60092791D01*
X86568747Y-60127529D01*
X86561023Y-60163820D01*
X86553970Y-60201661D01*
X86547589Y-60241054D01*
X86541880Y-60281998D01*
X86536843Y-60324493D01*
X86532477Y-60368540D01*
X86528783Y-60414138D01*
X86525760Y-60461287D01*
X86523409Y-60509988D01*
X86521730Y-60560240D01*
X86520723Y-60612043D01*
X86520387Y-60665398D01*
X86520387Y-61066933D01*
X86410478Y-61066933D01*
X86410478Y-60644149D01*
X86410533Y-60612441D01*
X86410699Y-60581615D01*
X86410976Y-60551670D01*
X86411598Y-60508407D01*
X86412470Y-60467126D01*
X86413590Y-60427829D01*
X86414960Y-60390516D01*
X86416578Y-60355186D01*
X86418446Y-60321840D01*
X86420563Y-60290477D01*
X86422928Y-60261098D01*
X86424644Y-60242614D01*
X86430437Y-60201410D01*
X86436827Y-60161515D01*
X86443813Y-60122928D01*
X86451396Y-60085649D01*
X86459575Y-60049678D01*
X86468350Y-60015016D01*
X86477721Y-59981661D01*
X86487689Y-59949614D01*
X86498253Y-59918875D01*
X86509413Y-59889444D01*
X86521170Y-59861321D01*
X86533522Y-59834507D01*
X86546472Y-59809000D01*
X86560017Y-59784801D01*
X86574159Y-59761911D01*
X86588897Y-59740328D01*
X86604231Y-59720054D01*
X86620162Y-59701087D01*
X86636689Y-59683429D01*
X86653812Y-59667078D01*
X86671532Y-59652036D01*
X86689847Y-59638301D01*
X86708760Y-59625875D01*
X86728268Y-59614757D01*
X86748373Y-59604947D01*
X86769074Y-59596444D01*
X86790371Y-59589250D01*
X86812265Y-59583364D01*
X86834755Y-59578786D01*
X86857841Y-59575516D01*
X86881523Y-59573554D01*
X86905802Y-59572900D01*
X86934184Y-59573761D01*
X86961932Y-59576346D01*
X86989047Y-59580653D01*
X87015528Y-59586684D01*
X87041376Y-59594438D01*
X87066590Y-59603915D01*
X87091171Y-59615115D01*
X87115118Y-59628038D01*
X87138432Y-59642684D01*
X87161112Y-59659053D01*
X87183159Y-59677145D01*
X87204572Y-59696960D01*
X87225352Y-59718498D01*
X87245498Y-59741759D01*
X87265011Y-59766744D01*
X87283890Y-59793451D01*
X87301863Y-59821567D01*
X87318779Y-59850776D01*
X87334637Y-59881078D01*
X87349439Y-59912474D01*
X87363183Y-59944963D01*
X87375870Y-59978545D01*
X87387500Y-60013221D01*
X87398073Y-60048990D01*
X87407589Y-60085853D01*
X87416048Y-60123809D01*
X87423450Y-60162858D01*
X87429795Y-60203000D01*
X87435082Y-60244236D01*
X87439312Y-60286566D01*
X87442486Y-60329989D01*
X87444602Y-60374505D01*
X87449975Y-60374505D01*
X88255000Y-59411699D01*
X88255000Y-59634449D01*
G37*
G36*
X87368488Y-56485803D02*
G01*
X87401852Y-56487666D01*
X87434784Y-56490772D01*
X87467286Y-56495119D01*
X87499356Y-56500709D01*
X87530995Y-56507541D01*
X87562203Y-56515616D01*
X87592979Y-56524932D01*
X87623325Y-56535491D01*
X87653239Y-56547292D01*
X87682721Y-56560335D01*
X87711773Y-56574620D01*
X87740393Y-56590148D01*
X87768582Y-56606918D01*
X87796340Y-56624930D01*
X87823667Y-56644184D01*
X87850411Y-56664457D01*
X87876423Y-56685709D01*
X87901702Y-56707940D01*
X87926249Y-56731149D01*
X87950062Y-56755338D01*
X87973143Y-56780506D01*
X87995491Y-56806652D01*
X88017107Y-56833777D01*
X88037990Y-56861881D01*
X88058140Y-56890964D01*
X88077557Y-56921026D01*
X88096242Y-56952067D01*
X88114193Y-56984087D01*
X88131413Y-57017085D01*
X88147899Y-57051063D01*
X88163653Y-57086019D01*
X88178500Y-57121748D01*
X88192389Y-57158044D01*
X88205321Y-57194907D01*
X88217295Y-57232336D01*
X88228310Y-57270332D01*
X88238368Y-57308894D01*
X88247468Y-57348024D01*
X88255610Y-57387720D01*
X88262794Y-57427983D01*
X88269021Y-57468812D01*
X88274289Y-57510209D01*
X88278599Y-57552172D01*
X88281952Y-57594702D01*
X88284347Y-57637798D01*
X88285784Y-57681461D01*
X88286263Y-57725691D01*
X88285786Y-57773035D01*
X88284354Y-57819629D01*
X88281969Y-57865473D01*
X88278630Y-57910568D01*
X88274337Y-57954912D01*
X88269089Y-57998507D01*
X88262888Y-58041351D01*
X88255732Y-58083446D01*
X88247623Y-58124791D01*
X88238559Y-58165385D01*
X88228541Y-58205230D01*
X88217569Y-58244325D01*
X88205643Y-58282671D01*
X88192763Y-58320266D01*
X88178929Y-58357111D01*
X88164141Y-58393207D01*
X88148508Y-58428323D01*
X88132138Y-58462415D01*
X88115031Y-58495482D01*
X88097188Y-58527525D01*
X88078608Y-58558543D01*
X88059292Y-58588536D01*
X88039240Y-58617505D01*
X88018450Y-58645449D01*
X87996924Y-58672368D01*
X87974662Y-58698262D01*
X87951663Y-58723132D01*
X87927928Y-58746977D01*
X87903456Y-58769798D01*
X87878247Y-58791594D01*
X87852302Y-58812365D01*
X87825621Y-58832111D01*
X87798344Y-58850655D01*
X87770613Y-58868003D01*
X87742427Y-58884155D01*
X87713788Y-58899110D01*
X87684694Y-58912869D01*
X87655147Y-58925431D01*
X87625145Y-58936797D01*
X87594689Y-58946966D01*
X87563779Y-58955939D01*
X87532415Y-58963716D01*
X87500596Y-58970296D01*
X87468324Y-58975680D01*
X87435597Y-58979868D01*
X87402416Y-58982859D01*
X87368782Y-58984653D01*
X87334692Y-58985251D01*
X87300773Y-58984627D01*
X87267281Y-58982756D01*
X87234217Y-58979636D01*
X87201580Y-58975268D01*
X87169371Y-58969652D01*
X87137588Y-58962789D01*
X87106234Y-58954677D01*
X87075307Y-58945318D01*
X87044807Y-58934710D01*
X87014734Y-58922855D01*
X86985089Y-58909752D01*
X86955872Y-58895401D01*
X86927082Y-58879801D01*
X86898719Y-58862954D01*
X86870784Y-58844859D01*
X86843276Y-58825517D01*
X86816356Y-58805063D01*
X86790184Y-58783637D01*
X86764759Y-58761237D01*
X86740083Y-58737864D01*
X86716155Y-58713518D01*
X86692975Y-58688199D01*
X86670543Y-58661906D01*
X86648859Y-58634641D01*
X86627922Y-58606402D01*
X86607734Y-58577190D01*
X86588294Y-58547005D01*
X86569602Y-58515847D01*
X86551658Y-58483716D01*
X86534461Y-58450611D01*
X86518013Y-58416534D01*
X86502313Y-58381483D01*
X86487406Y-58345645D01*
X86473462Y-58309206D01*
X86460479Y-58272166D01*
X86448457Y-58234525D01*
X86437398Y-58196283D01*
X86427300Y-58157440D01*
X86418164Y-58117996D01*
X86409989Y-58077950D01*
X86402776Y-58037304D01*
X86396525Y-57996056D01*
X86391236Y-57954208D01*
X86386908Y-57911758D01*
X86383542Y-57868708D01*
X86381138Y-57825056D01*
X86379695Y-57780803D01*
X86379214Y-57735949D01*
X86489124Y-57735949D01*
X86489513Y-57772116D01*
X86490681Y-57807894D01*
X86492627Y-57843283D01*
X86495352Y-57878282D01*
X86498855Y-57912892D01*
X86503137Y-57947112D01*
X86508198Y-57980944D01*
X86514036Y-58014386D01*
X86520654Y-58047439D01*
X86528050Y-58080103D01*
X86536224Y-58112377D01*
X86545177Y-58144262D01*
X86554909Y-58175758D01*
X86565419Y-58206865D01*
X86576708Y-58237582D01*
X86588775Y-58267910D01*
X86601590Y-58297654D01*
X86615122Y-58326620D01*
X86629373Y-58354807D01*
X86644340Y-58382216D01*
X86660025Y-58408846D01*
X86676427Y-58434698D01*
X86693547Y-58459771D01*
X86711385Y-58484065D01*
X86729940Y-58507581D01*
X86749212Y-58530319D01*
X86769202Y-58552278D01*
X86789909Y-58573458D01*
X86811333Y-58593860D01*
X86833476Y-58613483D01*
X86856335Y-58632328D01*
X86879912Y-58650394D01*
X86904129Y-58667430D01*
X86928906Y-58683367D01*
X86954244Y-58698205D01*
X86980143Y-58711944D01*
X87006604Y-58724583D01*
X87033625Y-58736124D01*
X87061207Y-58746565D01*
X87089351Y-58755907D01*
X87118055Y-58764151D01*
X87147320Y-58771295D01*
X87177146Y-58777340D01*
X87207534Y-58782286D01*
X87238482Y-58786132D01*
X87269991Y-58788880D01*
X87302061Y-58790529D01*
X87334692Y-58791078D01*
X87367675Y-58790523D01*
X87400066Y-58788857D01*
X87431865Y-58786081D01*
X87463073Y-58782194D01*
X87493689Y-58777197D01*
X87523714Y-58771089D01*
X87553147Y-58763870D01*
X87581988Y-58755541D01*
X87610238Y-58746101D01*
X87637897Y-58735551D01*
X87664964Y-58723891D01*
X87691440Y-58711119D01*
X87717324Y-58697238D01*
X87742616Y-58682245D01*
X87767317Y-58666142D01*
X87791427Y-58648929D01*
X87814819Y-58630771D01*
X87837489Y-58611835D01*
X87859439Y-58592120D01*
X87880667Y-58571626D01*
X87901174Y-58550354D01*
X87920959Y-58528304D01*
X87940024Y-58505475D01*
X87958367Y-58481867D01*
X87975988Y-58457481D01*
X87992889Y-58432316D01*
X88009068Y-58406373D01*
X88024526Y-58379651D01*
X88039262Y-58352151D01*
X88053278Y-58323872D01*
X88066572Y-58294815D01*
X88079145Y-58264979D01*
X88090916Y-58234451D01*
X88101928Y-58203499D01*
X88112180Y-58172123D01*
X88121673Y-58140324D01*
X88130407Y-58108101D01*
X88138381Y-58075454D01*
X88145596Y-58042384D01*
X88152051Y-58008891D01*
X88157747Y-57974973D01*
X88162683Y-57940632D01*
X88166860Y-57905868D01*
X88170278Y-57870680D01*
X88172936Y-57835068D01*
X88174834Y-57799033D01*
X88175974Y-57762574D01*
X88176353Y-57725691D01*
X88175974Y-57689541D01*
X88174834Y-57653815D01*
X88172936Y-57618512D01*
X88170278Y-57583633D01*
X88166860Y-57549178D01*
X88162683Y-57515146D01*
X88157747Y-57481538D01*
X88152051Y-57448353D01*
X88145596Y-57415592D01*
X88138381Y-57383255D01*
X88130407Y-57351341D01*
X88121673Y-57319851D01*
X88112180Y-57288784D01*
X88101928Y-57258142D01*
X88090916Y-57227922D01*
X88079145Y-57198127D01*
X88066572Y-57168832D01*
X88053278Y-57140298D01*
X88039262Y-57112526D01*
X88024526Y-57085515D01*
X88009068Y-57059266D01*
X87992889Y-57033778D01*
X87975988Y-57009051D01*
X87958367Y-56985086D01*
X87940024Y-56961882D01*
X87920959Y-56939439D01*
X87901174Y-56917758D01*
X87880667Y-56896838D01*
X87859439Y-56876679D01*
X87837489Y-56857282D01*
X87814819Y-56838646D01*
X87791427Y-56820771D01*
X87767317Y-56803824D01*
X87742616Y-56787970D01*
X87717324Y-56773210D01*
X87691440Y-56759543D01*
X87664964Y-56746969D01*
X87637897Y-56735489D01*
X87610238Y-56725102D01*
X87581988Y-56715808D01*
X87553147Y-56707608D01*
X87523714Y-56700501D01*
X87493689Y-56694487D01*
X87463073Y-56689567D01*
X87431865Y-56685740D01*
X87400066Y-56683007D01*
X87367675Y-56681367D01*
X87334692Y-56680820D01*
X87302061Y-56681367D01*
X87269991Y-56683007D01*
X87238482Y-56685740D01*
X87207534Y-56689567D01*
X87177146Y-56694487D01*
X87147320Y-56700501D01*
X87118055Y-56707608D01*
X87089351Y-56715808D01*
X87061207Y-56725102D01*
X87033625Y-56735489D01*
X87006604Y-56746969D01*
X86980143Y-56759543D01*
X86954244Y-56773210D01*
X86928906Y-56787970D01*
X86904129Y-56803824D01*
X86879912Y-56820771D01*
X86856335Y-56838657D01*
X86833476Y-56857328D01*
X86811333Y-56876782D01*
X86789909Y-56897021D01*
X86769202Y-56918044D01*
X86749212Y-56939851D01*
X86729940Y-56962443D01*
X86711385Y-56985818D01*
X86693547Y-57009978D01*
X86676427Y-57034923D01*
X86660025Y-57060651D01*
X86644340Y-57087164D01*
X86629373Y-57114461D01*
X86615122Y-57142542D01*
X86601590Y-57171408D01*
X86588775Y-57201057D01*
X86576708Y-57231311D01*
X86565419Y-57261988D01*
X86554909Y-57293089D01*
X86545177Y-57324614D01*
X86536224Y-57356562D01*
X86528050Y-57388934D01*
X86520654Y-57421729D01*
X86514036Y-57454948D01*
X86508198Y-57488590D01*
X86503137Y-57522657D01*
X86498855Y-57557146D01*
X86495352Y-57592060D01*
X86492627Y-57627397D01*
X86490681Y-57663157D01*
X86489513Y-57699341D01*
X86489124Y-57735949D01*
X86379214Y-57735949D01*
X86379695Y-57689235D01*
X86381138Y-57643248D01*
X86383542Y-57597987D01*
X86386908Y-57553454D01*
X86391236Y-57509648D01*
X86396525Y-57466568D01*
X86402776Y-57424216D01*
X86409989Y-57382591D01*
X86418164Y-57341693D01*
X86427300Y-57301521D01*
X86437398Y-57262077D01*
X86448457Y-57223360D01*
X86460479Y-57185370D01*
X86473462Y-57148106D01*
X86487406Y-57111570D01*
X86502313Y-57075761D01*
X86518007Y-57040825D01*
X86534438Y-57006907D01*
X86551606Y-56974009D01*
X86569510Y-56942129D01*
X86588151Y-56911269D01*
X86607528Y-56881427D01*
X86627642Y-56852605D01*
X86648492Y-56824801D01*
X86670079Y-56798017D01*
X86692402Y-56772251D01*
X86715462Y-56747504D01*
X86739259Y-56723776D01*
X86763792Y-56701068D01*
X86789062Y-56679378D01*
X86815068Y-56658707D01*
X86841810Y-56639055D01*
X86869152Y-56620422D01*
X86896956Y-56602991D01*
X86925221Y-56586762D01*
X86953948Y-56571735D01*
X86983137Y-56557911D01*
X87012788Y-56545288D01*
X87042900Y-56533868D01*
X87073475Y-56523650D01*
X87104511Y-56514634D01*
X87136009Y-56506820D01*
X87167968Y-56500208D01*
X87200389Y-56494799D01*
X87233273Y-56490591D01*
X87266617Y-56487586D01*
X87300424Y-56485783D01*
X87334692Y-56485182D01*
X87368488Y-56485803D01*
G37*
G36*
X89770478Y-92749383D02*
G01*
X90755753Y-92215224D01*
X90787792Y-92197902D01*
X90819247Y-92180926D01*
X90850116Y-92164294D01*
X90880401Y-92148007D01*
X90910101Y-92132065D01*
X90939216Y-92116468D01*
X90967746Y-92101216D01*
X90995691Y-92086309D01*
X91023052Y-92071747D01*
X91049827Y-92057529D01*
X91076018Y-92043657D01*
X91101624Y-92030129D01*
X91126645Y-92016947D01*
X91151081Y-92004109D01*
X91174933Y-91991616D01*
X91198199Y-91979468D01*
X91220881Y-91967665D01*
X91242978Y-91956207D01*
X91264490Y-91945094D01*
X91285417Y-91934325D01*
X91305759Y-91923902D01*
X91325516Y-91913823D01*
X91344689Y-91904089D01*
X91363277Y-91894701D01*
X91398698Y-91876958D01*
X91431779Y-91860594D01*
X91462521Y-91845611D01*
X91490924Y-91832006D01*
X91490924Y-91823946D01*
X91462523Y-91810898D01*
X91432886Y-91797030D01*
X91402012Y-91782344D01*
X91369902Y-91766839D01*
X91336555Y-91750516D01*
X91301972Y-91733374D01*
X91266152Y-91715414D01*
X91229096Y-91696635D01*
X91210104Y-91686938D01*
X91190803Y-91677037D01*
X91171193Y-91666931D01*
X91151274Y-91656621D01*
X91131046Y-91646106D01*
X91110508Y-91635386D01*
X91089662Y-91624462D01*
X91068506Y-91613333D01*
X91047041Y-91601999D01*
X91025268Y-91590461D01*
X91003185Y-91578718D01*
X90980792Y-91566770D01*
X90958091Y-91554618D01*
X90935081Y-91542261D01*
X90911761Y-91529699D01*
X90888133Y-91516933D01*
X89770478Y-90916829D01*
X89770478Y-90731448D01*
X91615000Y-91730890D01*
X91615000Y-91933123D01*
X89770478Y-92934763D01*
X89770478Y-92749383D01*
G37*
G36*
X91012405Y-88690267D02*
G01*
X91047921Y-88693066D01*
X91082609Y-88697732D01*
X91116469Y-88704263D01*
X91149501Y-88712661D01*
X91181705Y-88722925D01*
X91213081Y-88735055D01*
X91243628Y-88749051D01*
X91273348Y-88764914D01*
X91302239Y-88782642D01*
X91330302Y-88802237D01*
X91357537Y-88823698D01*
X91383944Y-88847025D01*
X91409523Y-88872218D01*
X91434273Y-88899278D01*
X91458196Y-88928203D01*
X91480969Y-88958594D01*
X91502274Y-88990050D01*
X91522109Y-89022571D01*
X91540475Y-89056156D01*
X91557372Y-89090806D01*
X91572799Y-89126521D01*
X91586757Y-89163300D01*
X91599246Y-89201145D01*
X91610265Y-89240054D01*
X91619816Y-89280027D01*
X91627897Y-89321066D01*
X91634508Y-89363169D01*
X91639651Y-89406337D01*
X91643324Y-89450570D01*
X91645528Y-89495868D01*
X91646263Y-89542230D01*
X91645555Y-89590066D01*
X91643431Y-89636672D01*
X91639891Y-89682046D01*
X91634936Y-89726190D01*
X91628565Y-89769104D01*
X91620777Y-89810786D01*
X91611574Y-89851238D01*
X91600956Y-89890459D01*
X91588921Y-89928449D01*
X91575470Y-89965209D01*
X91560604Y-90000738D01*
X91544322Y-90035036D01*
X91526624Y-90068103D01*
X91507510Y-90099939D01*
X91486980Y-90130545D01*
X91465034Y-90159920D01*
X91441887Y-90187692D01*
X91417751Y-90213672D01*
X91392626Y-90237861D01*
X91366513Y-90260258D01*
X91339412Y-90280863D01*
X91311322Y-90299676D01*
X91282243Y-90316698D01*
X91252177Y-90331928D01*
X91221122Y-90345366D01*
X91189078Y-90357012D01*
X91156046Y-90366867D01*
X91122026Y-90374930D01*
X91087017Y-90381201D01*
X91051020Y-90385680D01*
X91014034Y-90388368D01*
X90976060Y-90389264D01*
X90939069Y-90388354D01*
X90902955Y-90385623D01*
X90867719Y-90381072D01*
X90833361Y-90374701D01*
X90799881Y-90366509D01*
X90767278Y-90356497D01*
X90735554Y-90344665D01*
X90704706Y-90331012D01*
X90674737Y-90315539D01*
X90645645Y-90298245D01*
X90617432Y-90279131D01*
X90590095Y-90258197D01*
X90563637Y-90235443D01*
X90538056Y-90210867D01*
X90513354Y-90184472D01*
X90489528Y-90156256D01*
X90466814Y-90126552D01*
X90445565Y-90095692D01*
X90425781Y-90063675D01*
X90407463Y-90030502D01*
X90390610Y-89996172D01*
X90375223Y-89960686D01*
X90361301Y-89924044D01*
X90348845Y-89886246D01*
X90337854Y-89847291D01*
X90328328Y-89807180D01*
X90320268Y-89765912D01*
X90313674Y-89723489D01*
X90308545Y-89679908D01*
X90304881Y-89635172D01*
X90302683Y-89589279D01*
X90301950Y-89542230D01*
X90399647Y-89542230D01*
X90400262Y-89579854D01*
X90402105Y-89616522D01*
X90405177Y-89652234D01*
X90409478Y-89686989D01*
X90415008Y-89720789D01*
X90421766Y-89753633D01*
X90429754Y-89785521D01*
X90438970Y-89816453D01*
X90449415Y-89846429D01*
X90461089Y-89875450D01*
X90473992Y-89903514D01*
X90488124Y-89930622D01*
X90503485Y-89956774D01*
X90520074Y-89981970D01*
X90537892Y-90006210D01*
X90556939Y-90029494D01*
X90576952Y-90051588D01*
X90597789Y-90072256D01*
X90619450Y-90091499D01*
X90641936Y-90109316D01*
X90665246Y-90125708D01*
X90689380Y-90140674D01*
X90714339Y-90154216D01*
X90740122Y-90166331D01*
X90766729Y-90177022D01*
X90794160Y-90186287D01*
X90822416Y-90194126D01*
X90851496Y-90200541D01*
X90881401Y-90205529D01*
X90912130Y-90209093D01*
X90943683Y-90211231D01*
X90976060Y-90211944D01*
X91008428Y-90211231D01*
X91039953Y-90209093D01*
X91070634Y-90205529D01*
X91100471Y-90200541D01*
X91129466Y-90194126D01*
X91157617Y-90186287D01*
X91184924Y-90177022D01*
X91211388Y-90166331D01*
X91237009Y-90154216D01*
X91261786Y-90140674D01*
X91285720Y-90125708D01*
X91308811Y-90109316D01*
X91331058Y-90091499D01*
X91352461Y-90072256D01*
X91373022Y-90051588D01*
X91392739Y-90029494D01*
X91411431Y-90006210D01*
X91428917Y-89981970D01*
X91445197Y-89956774D01*
X91460272Y-89930622D01*
X91474140Y-89903514D01*
X91486803Y-89875450D01*
X91498259Y-89846429D01*
X91508510Y-89816453D01*
X91517554Y-89785521D01*
X91525393Y-89753633D01*
X91532026Y-89720789D01*
X91537452Y-89686989D01*
X91541673Y-89652234D01*
X91544688Y-89616522D01*
X91546497Y-89579854D01*
X91547100Y-89542230D01*
X91546497Y-89503896D01*
X91544688Y-89466564D01*
X91541673Y-89430234D01*
X91537452Y-89394906D01*
X91532026Y-89360579D01*
X91525393Y-89327254D01*
X91517554Y-89294931D01*
X91508510Y-89263610D01*
X91498259Y-89233290D01*
X91486803Y-89203973D01*
X91474140Y-89175657D01*
X91460272Y-89148342D01*
X91445197Y-89122030D01*
X91428917Y-89096719D01*
X91411431Y-89072411D01*
X91392739Y-89049103D01*
X91373022Y-89027010D01*
X91352461Y-89006342D01*
X91331058Y-88987099D01*
X91308811Y-88969282D01*
X91285720Y-88952890D01*
X91261786Y-88937923D01*
X91237009Y-88924382D01*
X91211388Y-88912266D01*
X91184924Y-88901576D01*
X91157617Y-88892311D01*
X91129466Y-88884471D01*
X91100471Y-88878057D01*
X91070634Y-88873068D01*
X91039953Y-88869505D01*
X91008428Y-88867367D01*
X90976060Y-88866654D01*
X90944032Y-88867378D01*
X90912794Y-88869551D01*
X90882345Y-88873171D01*
X90852687Y-88878240D01*
X90823819Y-88884758D01*
X90795740Y-88892723D01*
X90768452Y-88902137D01*
X90741953Y-88912999D01*
X90716245Y-88925310D01*
X90691326Y-88939068D01*
X90667198Y-88954275D01*
X90643859Y-88970931D01*
X90621311Y-88989034D01*
X90599552Y-89008586D01*
X90578584Y-89029586D01*
X90558405Y-89052034D01*
X90539180Y-89075673D01*
X90521196Y-89100246D01*
X90504452Y-89125751D01*
X90488948Y-89152189D01*
X90474685Y-89179561D01*
X90461662Y-89207865D01*
X90449879Y-89237103D01*
X90439337Y-89267273D01*
X90430034Y-89298377D01*
X90421972Y-89330414D01*
X90415151Y-89363384D01*
X90409569Y-89397287D01*
X90405228Y-89432123D01*
X90402128Y-89467892D01*
X90400267Y-89504594D01*
X90399647Y-89542230D01*
X90301950Y-89542230D01*
X90302671Y-89494645D01*
X90304835Y-89448246D01*
X90308441Y-89403031D01*
X90313490Y-89359002D01*
X90319982Y-89316157D01*
X90327916Y-89274498D01*
X90337293Y-89234023D01*
X90348112Y-89194733D01*
X90360374Y-89156629D01*
X90374078Y-89119709D01*
X90389225Y-89083974D01*
X90405814Y-89049424D01*
X90423846Y-89016059D01*
X90443321Y-88983879D01*
X90464238Y-88952884D01*
X90486598Y-88923074D01*
X90510148Y-88894770D01*
X90534637Y-88868291D01*
X90560065Y-88843639D01*
X90586432Y-88820813D01*
X90613737Y-88799813D01*
X90641982Y-88780639D01*
X90671165Y-88763291D01*
X90701287Y-88747769D01*
X90732348Y-88734073D01*
X90764347Y-88722204D01*
X90797286Y-88712160D01*
X90831163Y-88703943D01*
X90865979Y-88697551D01*
X90901734Y-88692986D01*
X90938428Y-88690247D01*
X90976060Y-88689334D01*
X91012405Y-88690267D01*
G37*
G36*
X91615000Y-88088496D02*
G01*
X91427421Y-88088496D01*
X91427421Y-87835705D01*
X91615000Y-87835705D01*
X91615000Y-88088496D01*
G37*
G36*
X91012405Y-85527810D02*
G01*
X91047921Y-85530610D01*
X91082609Y-85535275D01*
X91116469Y-85541807D01*
X91149501Y-85550204D01*
X91181705Y-85560468D01*
X91213081Y-85572598D01*
X91243628Y-85586595D01*
X91273348Y-85602457D01*
X91302239Y-85620186D01*
X91330302Y-85639781D01*
X91357537Y-85661241D01*
X91383944Y-85684569D01*
X91409523Y-85709762D01*
X91434273Y-85736821D01*
X91458196Y-85765747D01*
X91480969Y-85796138D01*
X91502274Y-85827594D01*
X91522109Y-85860114D01*
X91540475Y-85893700D01*
X91557372Y-85928350D01*
X91572799Y-85964064D01*
X91586757Y-86000844D01*
X91599246Y-86038688D01*
X91610265Y-86077597D01*
X91619816Y-86117571D01*
X91627897Y-86158610D01*
X91634508Y-86200713D01*
X91639651Y-86243881D01*
X91643324Y-86288114D01*
X91645528Y-86333411D01*
X91646263Y-86379773D01*
X91645555Y-86427610D01*
X91643431Y-86474215D01*
X91639891Y-86519590D01*
X91634936Y-86563734D01*
X91628565Y-86606647D01*
X91620777Y-86648330D01*
X91611574Y-86688782D01*
X91600956Y-86728003D01*
X91588921Y-86765993D01*
X91575470Y-86802752D01*
X91560604Y-86838281D01*
X91544322Y-86872579D01*
X91526624Y-86905646D01*
X91507510Y-86937483D01*
X91486980Y-86968089D01*
X91465034Y-86997464D01*
X91441887Y-87025236D01*
X91417751Y-87051216D01*
X91392626Y-87075405D01*
X91366513Y-87097802D01*
X91339412Y-87118407D01*
X91311322Y-87137220D01*
X91282243Y-87154242D01*
X91252177Y-87169472D01*
X91221122Y-87182910D01*
X91189078Y-87194556D01*
X91156046Y-87204411D01*
X91122026Y-87212474D01*
X91087017Y-87218745D01*
X91051020Y-87223224D01*
X91014034Y-87225912D01*
X90976060Y-87226808D01*
X90939069Y-87225897D01*
X90902955Y-87223167D01*
X90867719Y-87218616D01*
X90833361Y-87212245D01*
X90799881Y-87204053D01*
X90767278Y-87194041D01*
X90735554Y-87182208D01*
X90704706Y-87168556D01*
X90674737Y-87153083D01*
X90645645Y-87135789D01*
X90617432Y-87116675D01*
X90590095Y-87095741D01*
X90563637Y-87072986D01*
X90538056Y-87048411D01*
X90513354Y-87022016D01*
X90489528Y-86993800D01*
X90466814Y-86964096D01*
X90445565Y-86933235D01*
X90425781Y-86901219D01*
X90407463Y-86868045D01*
X90390610Y-86833716D01*
X90375223Y-86798230D01*
X90361301Y-86761588D01*
X90348845Y-86723789D01*
X90337854Y-86684835D01*
X90328328Y-86644723D01*
X90320268Y-86603456D01*
X90313674Y-86561032D01*
X90308545Y-86517452D01*
X90304881Y-86472715D01*
X90302683Y-86426823D01*
X90301950Y-86379773D01*
X90399647Y-86379773D01*
X90400262Y-86417397D01*
X90402105Y-86454065D01*
X90405177Y-86489777D01*
X90409478Y-86524533D01*
X90415008Y-86558333D01*
X90421766Y-86591177D01*
X90429754Y-86623065D01*
X90438970Y-86653997D01*
X90449415Y-86683973D01*
X90461089Y-86712993D01*
X90473992Y-86741057D01*
X90488124Y-86768165D01*
X90503485Y-86794317D01*
X90520074Y-86819514D01*
X90537892Y-86843754D01*
X90556939Y-86867038D01*
X90576952Y-86889131D01*
X90597789Y-86909799D01*
X90619450Y-86929042D01*
X90641936Y-86946859D01*
X90665246Y-86963251D01*
X90689380Y-86978218D01*
X90714339Y-86991759D01*
X90740122Y-87003875D01*
X90766729Y-87014565D01*
X90794160Y-87023830D01*
X90822416Y-87031670D01*
X90851496Y-87038084D01*
X90881401Y-87043073D01*
X90912130Y-87046637D01*
X90943683Y-87048775D01*
X90976060Y-87049487D01*
X91008428Y-87048775D01*
X91039953Y-87046637D01*
X91070634Y-87043073D01*
X91100471Y-87038084D01*
X91129466Y-87031670D01*
X91157617Y-87023830D01*
X91184924Y-87014565D01*
X91211388Y-87003875D01*
X91237009Y-86991759D01*
X91261786Y-86978218D01*
X91285720Y-86963251D01*
X91308811Y-86946859D01*
X91331058Y-86929042D01*
X91352461Y-86909799D01*
X91373022Y-86889131D01*
X91392739Y-86867038D01*
X91411431Y-86843754D01*
X91428917Y-86819514D01*
X91445197Y-86794317D01*
X91460272Y-86768165D01*
X91474140Y-86741057D01*
X91486803Y-86712993D01*
X91498259Y-86683973D01*
X91508510Y-86653997D01*
X91517554Y-86623065D01*
X91525393Y-86591177D01*
X91532026Y-86558333D01*
X91537452Y-86524533D01*
X91541673Y-86489777D01*
X91544688Y-86454065D01*
X91546497Y-86417397D01*
X91547100Y-86379773D01*
X91546497Y-86341440D01*
X91544688Y-86304108D01*
X91541673Y-86267778D01*
X91537452Y-86232449D01*
X91532026Y-86198123D01*
X91525393Y-86164798D01*
X91517554Y-86132475D01*
X91508510Y-86101153D01*
X91498259Y-86070834D01*
X91486803Y-86041516D01*
X91474140Y-86013200D01*
X91460272Y-85985886D01*
X91445197Y-85959574D01*
X91428917Y-85934263D01*
X91411431Y-85909954D01*
X91392739Y-85886647D01*
X91373022Y-85864554D01*
X91352461Y-85843886D01*
X91331058Y-85824643D01*
X91308811Y-85806825D01*
X91285720Y-85790434D01*
X91261786Y-85775467D01*
X91237009Y-85761926D01*
X91211388Y-85749810D01*
X91184924Y-85739120D01*
X91157617Y-85729855D01*
X91129466Y-85722015D01*
X91100471Y-85715601D01*
X91070634Y-85710612D01*
X91039953Y-85707048D01*
X91008428Y-85704910D01*
X90976060Y-85704198D01*
X90944032Y-85704922D01*
X90912794Y-85707094D01*
X90882345Y-85710715D01*
X90852687Y-85715784D01*
X90823819Y-85722301D01*
X90795740Y-85730267D01*
X90768452Y-85739681D01*
X90741953Y-85750543D01*
X90716245Y-85762853D01*
X90691326Y-85776612D01*
X90667198Y-85791819D01*
X90643859Y-85808474D01*
X90621311Y-85826578D01*
X90599552Y-85846129D01*
X90578584Y-85867130D01*
X90558405Y-85889578D01*
X90539180Y-85913217D01*
X90521196Y-85937789D01*
X90504452Y-85963295D01*
X90488948Y-85989733D01*
X90474685Y-86017104D01*
X90461662Y-86045409D01*
X90449879Y-86074646D01*
X90439337Y-86104817D01*
X90430034Y-86135921D01*
X90421972Y-86167958D01*
X90415151Y-86200928D01*
X90409569Y-86234831D01*
X90405228Y-86269667D01*
X90402128Y-86305436D01*
X90400267Y-86342138D01*
X90399647Y-86379773D01*
X90301950Y-86379773D01*
X90302671Y-86332189D01*
X90304835Y-86285790D01*
X90308441Y-86240575D01*
X90313490Y-86196545D01*
X90319982Y-86153701D01*
X90327916Y-86112041D01*
X90337293Y-86071567D01*
X90348112Y-86032277D01*
X90360374Y-85994172D01*
X90374078Y-85957252D01*
X90389225Y-85921518D01*
X90405814Y-85886968D01*
X90423846Y-85853603D01*
X90443321Y-85821423D01*
X90464238Y-85790428D01*
X90486598Y-85760618D01*
X90510148Y-85732313D01*
X90534637Y-85705835D01*
X90560065Y-85681183D01*
X90586432Y-85658356D01*
X90613737Y-85637356D01*
X90641982Y-85618182D01*
X90671165Y-85600834D01*
X90701287Y-85585312D01*
X90732348Y-85571617D01*
X90764347Y-85559747D01*
X90797286Y-85549704D01*
X90831163Y-85541486D01*
X90865979Y-85535095D01*
X90901734Y-85530530D01*
X90938428Y-85527790D01*
X90976060Y-85526877D01*
X91012405Y-85527810D01*
G37*
G36*
X91615000Y-84926040D02*
G01*
X91427421Y-84926040D01*
X91427421Y-84673249D01*
X91615000Y-84673249D01*
X91615000Y-84926040D01*
G37*
G36*
X91615000Y-83988147D02*
G01*
X91510464Y-83988147D01*
X91510464Y-83322830D01*
X90458265Y-83322830D01*
X90614581Y-84072411D01*
X90505648Y-84072411D01*
X90333213Y-83314037D01*
X90333213Y-83153570D01*
X91510464Y-83153570D01*
X91510464Y-82650918D01*
X91615000Y-82650918D01*
X91615000Y-83988147D01*
G37*
G36*
X91121963Y-79671993D02*
G01*
X91148795Y-79675239D01*
X91175258Y-79680648D01*
X91201351Y-79688222D01*
X91227076Y-79697959D01*
X91252431Y-79709860D01*
X91277416Y-79723925D01*
X91302033Y-79740154D01*
X91326280Y-79758546D01*
X91350158Y-79779103D01*
X91365872Y-79794009D01*
X91388765Y-79817681D01*
X91410551Y-79842807D01*
X91431229Y-79869389D01*
X91450800Y-79897427D01*
X91469262Y-79926920D01*
X91486617Y-79957869D01*
X91502865Y-79990272D01*
X91518005Y-80024132D01*
X91532037Y-80059447D01*
X91544961Y-80096217D01*
X91552962Y-80121539D01*
X91564049Y-80162040D01*
X91570834Y-80191452D01*
X91577135Y-80222794D01*
X91582951Y-80256064D01*
X91588282Y-80291264D01*
X91593129Y-80328392D01*
X91597491Y-80367450D01*
X91601368Y-80408437D01*
X91604761Y-80451353D01*
X91607669Y-80496199D01*
X91610092Y-80542973D01*
X91612031Y-80591677D01*
X91613485Y-80642309D01*
X91614454Y-80694871D01*
X91614939Y-80749362D01*
X91615000Y-80777331D01*
X91615000Y-81409676D01*
X89770478Y-81409676D01*
X89770478Y-81228692D01*
X89880387Y-81228692D01*
X90614581Y-81228692D01*
X90727421Y-81228692D01*
X91505090Y-81228692D01*
X91505090Y-80750220D01*
X91504934Y-80713246D01*
X91504464Y-80677062D01*
X91503682Y-80641667D01*
X91502587Y-80607063D01*
X91501179Y-80573249D01*
X91499457Y-80540225D01*
X91497423Y-80507990D01*
X91495076Y-80476546D01*
X91492416Y-80445892D01*
X91489443Y-80416027D01*
X91486158Y-80386953D01*
X91480642Y-80344822D01*
X91474422Y-80304469D01*
X91467499Y-80265894D01*
X91465034Y-80253430D01*
X91456974Y-80217269D01*
X91447815Y-80182976D01*
X91437557Y-80150551D01*
X91426200Y-80119993D01*
X91413743Y-80091303D01*
X91400188Y-80064481D01*
X91385533Y-80039526D01*
X91369780Y-80016438D01*
X91352927Y-79995218D01*
X91334975Y-79975866D01*
X91322397Y-79964002D01*
X91302882Y-79947634D01*
X91282990Y-79932876D01*
X91262719Y-79919727D01*
X91242071Y-79908189D01*
X91221045Y-79898261D01*
X91199642Y-79889942D01*
X91177860Y-79883234D01*
X91155701Y-79878136D01*
X91133164Y-79874647D01*
X91110249Y-79872769D01*
X91094762Y-79872411D01*
X91068277Y-79873306D01*
X91042676Y-79875992D01*
X91017959Y-79880468D01*
X90994127Y-79886734D01*
X90971179Y-79894790D01*
X90949115Y-79904637D01*
X90927936Y-79916274D01*
X90907642Y-79929701D01*
X90888232Y-79944919D01*
X90869706Y-79961927D01*
X90857847Y-79974260D01*
X90840945Y-79994639D01*
X90825229Y-80017580D01*
X90810697Y-80043085D01*
X90797351Y-80071152D01*
X90785189Y-80101783D01*
X90774213Y-80134977D01*
X90764421Y-80170734D01*
X90755814Y-80209054D01*
X90748392Y-80249937D01*
X90744103Y-80278617D01*
X90740340Y-80308436D01*
X90738656Y-80323772D01*
X90736023Y-80353837D01*
X90733741Y-80387245D01*
X90731810Y-80423996D01*
X90730592Y-80453753D01*
X90729571Y-80485390D01*
X90728749Y-80518908D01*
X90728123Y-80554307D01*
X90727695Y-80591586D01*
X90727465Y-80630745D01*
X90727421Y-80657896D01*
X90727421Y-81228692D01*
X90614581Y-81228692D01*
X90614581Y-80661560D01*
X90614199Y-80618657D01*
X90613052Y-80577325D01*
X90611142Y-80537564D01*
X90608467Y-80499375D01*
X90605028Y-80462757D01*
X90600825Y-80427711D01*
X90595858Y-80394236D01*
X90590126Y-80362332D01*
X90583630Y-80331999D01*
X90576370Y-80303238D01*
X90571106Y-80284937D01*
X90562593Y-80258490D01*
X90550122Y-80225151D01*
X90536368Y-80194010D01*
X90521332Y-80165068D01*
X90505013Y-80138323D01*
X90487412Y-80113777D01*
X90468529Y-80091428D01*
X90448364Y-80071278D01*
X90443122Y-80066584D01*
X90421385Y-80049067D01*
X90398670Y-80033886D01*
X90374979Y-80021041D01*
X90350310Y-80010531D01*
X90331168Y-80004181D01*
X90311475Y-79999145D01*
X90291234Y-79995422D01*
X90270443Y-79993014D01*
X90249102Y-79991919D01*
X90241866Y-79991846D01*
X90218486Y-79992580D01*
X90195973Y-79994783D01*
X90174328Y-79998453D01*
X90153550Y-80003593D01*
X90133638Y-80010200D01*
X90114595Y-80018276D01*
X90090552Y-80031327D01*
X90068051Y-80046990D01*
X90047092Y-80065262D01*
X90037191Y-80075377D01*
X90018262Y-80097668D01*
X90000554Y-80122775D01*
X89984068Y-80150699D01*
X89968803Y-80181439D01*
X89958155Y-80206343D01*
X89948195Y-80232831D01*
X89938921Y-80260903D01*
X89930334Y-80290559D01*
X89922435Y-80321799D01*
X89919954Y-80332565D01*
X89912883Y-80366778D01*
X89906507Y-80404573D01*
X89900827Y-80445947D01*
X89897427Y-80475520D01*
X89894336Y-80506684D01*
X89891554Y-80539439D01*
X89889081Y-80573786D01*
X89886917Y-80609724D01*
X89885062Y-80647253D01*
X89883517Y-80686374D01*
X89882280Y-80727086D01*
X89881353Y-80769390D01*
X89880735Y-80813285D01*
X89880425Y-80858771D01*
X89880387Y-80882111D01*
X89880387Y-81228692D01*
X89770478Y-81228692D01*
X89770478Y-80966375D01*
X89770556Y-80923748D01*
X89770790Y-80882329D01*
X89771182Y-80842117D01*
X89771729Y-80803114D01*
X89772433Y-80765318D01*
X89773294Y-80728730D01*
X89774311Y-80693351D01*
X89775484Y-80659178D01*
X89776814Y-80626214D01*
X89778301Y-80594458D01*
X89779944Y-80563909D01*
X89781743Y-80534569D01*
X89784736Y-80492823D01*
X89788080Y-80453794D01*
X89790505Y-80429285D01*
X89794638Y-80393618D01*
X89799527Y-80358608D01*
X89805171Y-80324255D01*
X89811571Y-80290559D01*
X89818727Y-80257519D01*
X89826638Y-80225137D01*
X89835305Y-80193411D01*
X89844727Y-80162343D01*
X89854905Y-80131931D01*
X89865839Y-80102176D01*
X89873548Y-80082704D01*
X89885499Y-80054463D01*
X89897905Y-80027715D01*
X89910767Y-80002462D01*
X89924083Y-79978703D01*
X89937855Y-79956437D01*
X89952082Y-79935666D01*
X89971758Y-79910296D01*
X89992244Y-79887581D01*
X90013539Y-79867523D01*
X90024490Y-79858489D01*
X90047037Y-79842003D01*
X90070713Y-79827715D01*
X90095519Y-79815625D01*
X90114865Y-79808000D01*
X90134846Y-79801611D01*
X90155462Y-79796459D01*
X90176714Y-79792544D01*
X90198602Y-79789865D01*
X90221125Y-79788422D01*
X90236493Y-79788147D01*
X90257610Y-79788655D01*
X90278218Y-79790177D01*
X90298318Y-79792713D01*
X90317910Y-79796265D01*
X90355567Y-79806411D01*
X90391190Y-79820616D01*
X90424779Y-79838880D01*
X90456334Y-79861203D01*
X90485855Y-79887584D01*
X90513342Y-79918024D01*
X90538795Y-79952522D01*
X90562214Y-79991079D01*
X90583598Y-80033695D01*
X90602949Y-80080369D01*
X90620265Y-80131102D01*
X90628161Y-80157990D01*
X90635548Y-80185893D01*
X90642426Y-80214811D01*
X90648796Y-80244743D01*
X90654657Y-80275690D01*
X90660010Y-80307652D01*
X90665383Y-80307652D01*
X90666355Y-80270792D01*
X90668169Y-80234952D01*
X90670827Y-80200130D01*
X90674329Y-80166327D01*
X90678674Y-80133543D01*
X90683862Y-80101778D01*
X90689893Y-80071032D01*
X90696769Y-80041305D01*
X90704487Y-80012597D01*
X90713049Y-79984908D01*
X90722454Y-79958238D01*
X90732703Y-79932587D01*
X90743795Y-79907954D01*
X90755730Y-79884341D01*
X90768509Y-79861747D01*
X90782131Y-79840171D01*
X90796519Y-79819675D01*
X90811593Y-79800501D01*
X90827354Y-79782649D01*
X90843803Y-79766120D01*
X90860938Y-79750913D01*
X90878760Y-79737028D01*
X90897269Y-79724466D01*
X90916465Y-79713226D01*
X90936348Y-79703308D01*
X90956918Y-79694713D01*
X90978174Y-79687440D01*
X91000118Y-79681490D01*
X91022749Y-79676861D01*
X91046066Y-79673556D01*
X91070071Y-79671572D01*
X91094762Y-79670911D01*
X91121963Y-79671993D01*
G37*
G36*
X90333213Y-79303081D02*
G01*
X90333213Y-79125761D01*
X90397398Y-79089811D01*
X90459773Y-79054866D01*
X90520336Y-79020928D01*
X90579089Y-78987996D01*
X90636031Y-78956070D01*
X90691162Y-78925151D01*
X90744483Y-78895237D01*
X90795992Y-78866329D01*
X90845691Y-78838427D01*
X90893579Y-78811532D01*
X90939656Y-78785642D01*
X90983922Y-78760759D01*
X91026377Y-78736882D01*
X91067022Y-78714010D01*
X91105855Y-78692145D01*
X91142878Y-78671286D01*
X91178090Y-78651433D01*
X91211491Y-78632586D01*
X91243082Y-78614745D01*
X91272861Y-78597910D01*
X91300830Y-78582081D01*
X91326988Y-78567259D01*
X91351335Y-78553442D01*
X91373871Y-78540631D01*
X91394596Y-78528827D01*
X91413511Y-78518028D01*
X91445907Y-78499450D01*
X91471060Y-78484895D01*
X91488970Y-78474365D01*
X91488970Y-78458245D01*
X90333213Y-77784135D01*
X90333213Y-77606815D01*
X92240261Y-78771120D01*
X92240261Y-78948441D01*
X91618419Y-78563025D01*
X90333213Y-79303081D01*
G37*
G36*
X89883318Y-75936926D02*
G01*
X89883318Y-76886542D01*
X89770478Y-76886542D01*
X89770478Y-74801197D01*
X89883318Y-74801197D01*
X89883318Y-75755210D01*
X91615000Y-75755210D01*
X91615000Y-75936926D01*
X89883318Y-75936926D01*
G37*
G36*
X90333213Y-72257896D02*
G01*
X91615000Y-72833088D01*
X91615000Y-73014072D01*
X90426514Y-73549697D01*
X90426514Y-73562153D01*
X91615000Y-74073598D01*
X91615000Y-74254581D01*
X90333213Y-74840032D01*
X90333213Y-74662711D01*
X91250101Y-74279494D01*
X91502648Y-74170318D01*
X91502648Y-74162258D01*
X90333213Y-73658873D01*
X90333213Y-73439055D01*
X91244727Y-73038985D01*
X91502648Y-72929808D01*
X91502648Y-72921748D01*
X91350240Y-72853605D01*
X90333213Y-72430820D01*
X90333213Y-72257896D01*
G37*
G36*
X89895530Y-71776494D02*
G01*
X89895530Y-71586717D01*
X90020582Y-71586717D01*
X90020582Y-71776494D01*
X89895530Y-71776494D01*
G37*
G36*
X90333213Y-71764037D02*
G01*
X90333213Y-71599173D01*
X91615000Y-71599173D01*
X91615000Y-71764037D01*
X90333213Y-71764037D01*
G37*
G36*
X90333213Y-70738217D02*
G01*
X90541796Y-70709641D01*
X90541796Y-70705244D01*
X90520990Y-70682445D01*
X90501067Y-70658834D01*
X90482029Y-70634411D01*
X90463875Y-70609177D01*
X90446606Y-70583131D01*
X90430221Y-70556274D01*
X90414721Y-70528606D01*
X90400105Y-70500126D01*
X90386374Y-70470835D01*
X90373526Y-70440732D01*
X90365453Y-70420213D01*
X90354104Y-70388788D01*
X90343872Y-70356886D01*
X90334756Y-70324508D01*
X90326756Y-70291654D01*
X90319872Y-70258322D01*
X90314105Y-70224514D01*
X90309454Y-70190230D01*
X90305919Y-70155469D01*
X90303500Y-70120232D01*
X90302198Y-70084517D01*
X90301950Y-70060443D01*
X90302416Y-70022925D01*
X90303812Y-69986575D01*
X90306140Y-69951393D01*
X90309399Y-69917378D01*
X90313590Y-69884531D01*
X90318711Y-69852852D01*
X90324764Y-69822341D01*
X90331748Y-69792997D01*
X90339663Y-69764822D01*
X90348509Y-69737814D01*
X90358286Y-69711974D01*
X90368995Y-69687301D01*
X90386803Y-69652482D01*
X90406707Y-69620291D01*
X90421140Y-69600290D01*
X90436474Y-69581391D01*
X90452678Y-69563711D01*
X90469752Y-69547250D01*
X90487697Y-69532009D01*
X90506511Y-69517987D01*
X90526195Y-69505184D01*
X90546750Y-69493601D01*
X90568175Y-69483236D01*
X90590469Y-69474092D01*
X90613634Y-69466166D01*
X90637669Y-69459460D01*
X90662575Y-69453973D01*
X90688350Y-69449705D01*
X90714995Y-69446657D01*
X90742511Y-69444828D01*
X90770896Y-69444219D01*
X91615000Y-69444219D01*
X91615000Y-69606884D01*
X90784574Y-69606884D01*
X90760955Y-69607319D01*
X90738091Y-69608625D01*
X90715984Y-69610800D01*
X90694631Y-69613845D01*
X90674035Y-69617761D01*
X90654194Y-69622546D01*
X90625849Y-69631356D01*
X90599205Y-69642124D01*
X90574261Y-69654849D01*
X90551017Y-69669533D01*
X90529473Y-69686174D01*
X90509629Y-69704772D01*
X90497344Y-69718259D01*
X90480321Y-69740372D01*
X90464973Y-69764945D01*
X90451298Y-69791978D01*
X90439298Y-69821471D01*
X90428973Y-69853424D01*
X90420322Y-69887837D01*
X90413345Y-69924710D01*
X90408043Y-69964044D01*
X90404415Y-70005837D01*
X90402927Y-70035066D01*
X90402183Y-70065389D01*
X90402090Y-70080960D01*
X90402725Y-70113705D01*
X90404631Y-70146270D01*
X90407808Y-70178654D01*
X90412256Y-70210859D01*
X90417975Y-70242883D01*
X90424964Y-70274726D01*
X90433225Y-70306390D01*
X90442756Y-70337873D01*
X90453558Y-70369175D01*
X90465631Y-70400298D01*
X90474385Y-70420946D01*
X90488300Y-70451458D01*
X90503116Y-70481173D01*
X90518834Y-70510088D01*
X90535454Y-70538205D01*
X90552975Y-70565524D01*
X90571398Y-70592044D01*
X90590722Y-70617765D01*
X90610948Y-70642688D01*
X90632075Y-70666812D01*
X90654104Y-70690138D01*
X90669291Y-70705244D01*
X91615000Y-70705244D01*
X91615000Y-70870108D01*
X90333213Y-70870108D01*
X90333213Y-70738217D01*
G37*
G36*
X89883318Y-68058629D02*
G01*
X89883318Y-69008245D01*
X89770478Y-69008245D01*
X89770478Y-66922900D01*
X89883318Y-66922900D01*
X89883318Y-67876912D01*
X91615000Y-67876912D01*
X91615000Y-68058629D01*
X89883318Y-68058629D01*
G37*
G36*
X91121629Y-66776354D02*
G01*
X90333213Y-66776354D01*
X90333213Y-66611490D01*
X91148984Y-66611490D01*
X91174899Y-66610915D01*
X91199886Y-66609189D01*
X91223946Y-66606312D01*
X91247078Y-66602285D01*
X91269283Y-66597107D01*
X91290561Y-66590779D01*
X91310911Y-66583300D01*
X91330334Y-66574670D01*
X91348830Y-66564890D01*
X91374835Y-66548063D01*
X91398753Y-66528646D01*
X91420585Y-66506640D01*
X91440330Y-66482046D01*
X91452334Y-66464212D01*
X91468833Y-66435663D01*
X91483709Y-66405247D01*
X91496963Y-66372963D01*
X91508594Y-66338812D01*
X91518601Y-66302793D01*
X91526986Y-66264907D01*
X91533748Y-66225153D01*
X91538887Y-66183531D01*
X91542404Y-66140042D01*
X91543846Y-66110011D01*
X91544567Y-66079151D01*
X91544658Y-66063409D01*
X91544263Y-66029859D01*
X91543078Y-65997352D01*
X91541103Y-65965888D01*
X91538338Y-65935468D01*
X91534783Y-65906091D01*
X91528814Y-65868544D01*
X91521441Y-65832852D01*
X91512664Y-65799015D01*
X91502482Y-65767033D01*
X91499717Y-65759327D01*
X91487833Y-65729525D01*
X91474896Y-65701670D01*
X91460905Y-65675761D01*
X91445861Y-65651799D01*
X91429764Y-65629783D01*
X91412614Y-65609713D01*
X91394410Y-65591589D01*
X91375153Y-65575412D01*
X91354118Y-65561158D01*
X91330823Y-65548805D01*
X91311869Y-65540787D01*
X91291645Y-65533838D01*
X91270150Y-65527958D01*
X91247383Y-65523148D01*
X91223347Y-65519406D01*
X91198039Y-65516734D01*
X91171460Y-65515130D01*
X91143611Y-65514595D01*
X90333213Y-65514595D01*
X90333213Y-65349732D01*
X91124560Y-65349732D01*
X91152744Y-65350099D01*
X91179778Y-65351200D01*
X91205661Y-65353035D01*
X91230393Y-65355605D01*
X91253975Y-65358909D01*
X91276406Y-65362946D01*
X91297687Y-65367718D01*
X91317817Y-65373225D01*
X91342867Y-65381708D01*
X91365872Y-65391497D01*
X91387403Y-65402660D01*
X91408278Y-65415631D01*
X91428497Y-65430412D01*
X91448060Y-65447001D01*
X91466965Y-65465400D01*
X91485215Y-65485607D01*
X91502808Y-65507623D01*
X91519745Y-65531448D01*
X91535781Y-65556659D01*
X91550672Y-65582831D01*
X91564418Y-65609965D01*
X91577020Y-65638060D01*
X91588476Y-65667117D01*
X91598788Y-65697136D01*
X91607955Y-65728117D01*
X91615976Y-65760060D01*
X91623075Y-65793032D01*
X91629227Y-65827104D01*
X91634432Y-65862275D01*
X91638691Y-65898545D01*
X91642004Y-65935914D01*
X91644370Y-65974383D01*
X91645523Y-66003955D01*
X91646144Y-66034146D01*
X91646263Y-66054616D01*
X91645958Y-66087523D01*
X91645043Y-66119746D01*
X91643519Y-66151287D01*
X91641385Y-66182146D01*
X91638642Y-66212321D01*
X91635289Y-66241814D01*
X91631326Y-66270625D01*
X91625094Y-66307977D01*
X91617778Y-66344115D01*
X91611580Y-66370422D01*
X91602368Y-66404151D01*
X91592315Y-66436460D01*
X91581424Y-66467349D01*
X91569692Y-66496818D01*
X91557122Y-66524868D01*
X91543711Y-66551498D01*
X91529461Y-66576708D01*
X91514371Y-66600499D01*
X91498412Y-66622630D01*
X91481796Y-66643226D01*
X91464523Y-66662289D01*
X91446594Y-66679817D01*
X91428009Y-66695811D01*
X91408767Y-66710271D01*
X91388869Y-66723197D01*
X91368314Y-66734588D01*
X91346187Y-66744377D01*
X91321572Y-66752861D01*
X91301478Y-66758367D01*
X91279984Y-66763139D01*
X91257091Y-66767177D01*
X91232798Y-66770481D01*
X91207105Y-66773050D01*
X91180013Y-66774886D01*
X91151521Y-66775987D01*
X91131748Y-66776313D01*
X91121629Y-66776354D01*
G37*
G36*
X90333213Y-64536403D02*
G01*
X90560847Y-64507826D01*
X90560847Y-64503430D01*
X90540212Y-64481429D01*
X90520255Y-64457740D01*
X90500977Y-64432365D01*
X90482377Y-64405302D01*
X90464455Y-64376551D01*
X90447211Y-64346114D01*
X90430646Y-64313989D01*
X90414760Y-64280177D01*
X90399551Y-64244677D01*
X90385021Y-64207491D01*
X90375711Y-64181762D01*
X90366779Y-64155524D01*
X90354462Y-64116006D01*
X90343441Y-64076295D01*
X90333716Y-64036391D01*
X90325289Y-63996293D01*
X90318157Y-63956002D01*
X90312323Y-63915518D01*
X90307785Y-63874841D01*
X90304543Y-63833971D01*
X90302598Y-63792907D01*
X90301950Y-63751651D01*
X90301950Y-63698161D01*
X90410394Y-63698161D01*
X90410394Y-63751651D01*
X90411119Y-63793955D01*
X90413296Y-63835963D01*
X90416924Y-63877675D01*
X90422003Y-63919091D01*
X90428533Y-63960210D01*
X90436514Y-64001033D01*
X90445947Y-64041560D01*
X90456830Y-64081791D01*
X90469165Y-64121725D01*
X90478195Y-64148183D01*
X90487869Y-64174510D01*
X90492948Y-64187624D01*
X90503405Y-64213330D01*
X90514258Y-64238240D01*
X90525508Y-64262354D01*
X90543128Y-64297033D01*
X90561641Y-64329922D01*
X90581047Y-64361021D01*
X90601346Y-64390329D01*
X90622538Y-64417848D01*
X90644623Y-64443575D01*
X90667601Y-64467513D01*
X90691471Y-64489660D01*
X90707882Y-64503430D01*
X91615000Y-64503430D01*
X91615000Y-64668294D01*
X90333213Y-64668294D01*
X90333213Y-64536403D01*
G37*
G36*
X90998137Y-61701923D02*
G01*
X91025046Y-61703262D01*
X91051413Y-61705495D01*
X91077238Y-61708620D01*
X91102521Y-61712639D01*
X91127262Y-61717550D01*
X91151461Y-61723355D01*
X91175118Y-61730053D01*
X91198233Y-61737643D01*
X91220807Y-61746127D01*
X91242838Y-61755503D01*
X91264328Y-61765773D01*
X91285275Y-61776936D01*
X91305681Y-61788991D01*
X91325545Y-61801940D01*
X91344867Y-61815782D01*
X91363614Y-61830365D01*
X91381755Y-61845537D01*
X91399289Y-61861300D01*
X91416216Y-61877652D01*
X91432537Y-61894593D01*
X91448250Y-61912124D01*
X91470683Y-61939526D01*
X91491750Y-61968255D01*
X91511452Y-61998311D01*
X91529789Y-62029693D01*
X91546761Y-62062401D01*
X91562367Y-62096437D01*
X91572013Y-62119864D01*
X91585282Y-62155776D01*
X91597246Y-62192344D01*
X91607905Y-62229569D01*
X91617259Y-62267452D01*
X91625307Y-62305991D01*
X91632051Y-62345187D01*
X91637489Y-62385040D01*
X91641622Y-62425549D01*
X91644450Y-62466716D01*
X91645973Y-62508539D01*
X91646263Y-62536787D01*
X91645807Y-62574826D01*
X91644442Y-62611731D01*
X91642167Y-62647503D01*
X91638981Y-62682142D01*
X91634885Y-62715647D01*
X91629879Y-62748019D01*
X91623963Y-62779257D01*
X91617137Y-62809362D01*
X91609400Y-62838333D01*
X91600753Y-62866171D01*
X91594483Y-62884100D01*
X91584447Y-62910221D01*
X91573938Y-62935826D01*
X91562957Y-62960916D01*
X91551504Y-62985491D01*
X91539579Y-63009551D01*
X91527181Y-63033096D01*
X91514311Y-63056125D01*
X91500969Y-63078639D01*
X91487154Y-63100638D01*
X91472867Y-63122122D01*
X91463080Y-63136159D01*
X91463080Y-63140555D01*
X91615000Y-63161071D01*
X91615000Y-63309083D01*
X91589604Y-63307574D01*
X91564220Y-63306163D01*
X91538847Y-63304849D01*
X91513486Y-63303633D01*
X91488136Y-63302514D01*
X91462798Y-63301492D01*
X91437471Y-63300567D01*
X91412156Y-63299740D01*
X91386852Y-63299010D01*
X91361559Y-63298378D01*
X91336278Y-63297843D01*
X91311009Y-63297405D01*
X91285751Y-63297064D01*
X91260504Y-63296821D01*
X91235269Y-63296675D01*
X91210045Y-63296626D01*
X89614162Y-63296626D01*
X89614162Y-63131762D01*
X90494902Y-63131762D01*
X90494902Y-63127366D01*
X90478559Y-63107249D01*
X90462868Y-63086193D01*
X90447830Y-63064196D01*
X90433444Y-63041259D01*
X90419711Y-63017381D01*
X90406631Y-62992564D01*
X90394203Y-62966806D01*
X90382428Y-62940108D01*
X90371305Y-62912470D01*
X90360835Y-62883891D01*
X90354218Y-62864316D01*
X90344877Y-62834272D01*
X90336455Y-62803763D01*
X90328952Y-62772791D01*
X90322367Y-62741355D01*
X90316701Y-62709456D01*
X90311954Y-62677093D01*
X90308126Y-62644266D01*
X90305217Y-62610975D01*
X90303226Y-62577221D01*
X90302154Y-62543003D01*
X90301950Y-62519934D01*
X90302010Y-62515538D01*
X90402090Y-62515538D01*
X90402912Y-62560191D01*
X90405379Y-62604026D01*
X90409491Y-62647042D01*
X90415248Y-62689240D01*
X90422650Y-62730619D01*
X90431696Y-62771180D01*
X90442388Y-62810922D01*
X90454724Y-62849845D01*
X90468705Y-62887950D01*
X90484331Y-62925236D01*
X90501601Y-62961703D01*
X90520517Y-62997352D01*
X90541077Y-63032183D01*
X90563282Y-63066194D01*
X90587132Y-63099388D01*
X90612627Y-63131762D01*
X91342424Y-63131762D01*
X91361048Y-63110547D01*
X91379305Y-63087203D01*
X91397196Y-63061729D01*
X91414720Y-63034126D01*
X91427623Y-63012026D01*
X91440320Y-62988728D01*
X91452811Y-62964233D01*
X91465095Y-62938539D01*
X91477174Y-62911648D01*
X91481154Y-62902418D01*
X91492503Y-62873876D01*
X91502736Y-62844304D01*
X91511852Y-62813701D01*
X91519852Y-62782068D01*
X91526735Y-62749404D01*
X91532503Y-62715710D01*
X91537154Y-62680985D01*
X91540689Y-62645230D01*
X91543107Y-62608445D01*
X91544410Y-62570630D01*
X91544658Y-62544847D01*
X91544055Y-62506699D01*
X91542246Y-62469559D01*
X91539231Y-62433426D01*
X91535010Y-62398301D01*
X91529583Y-62364183D01*
X91522950Y-62331073D01*
X91515112Y-62298970D01*
X91506067Y-62267875D01*
X91495817Y-62237788D01*
X91484360Y-62208707D01*
X91471698Y-62180635D01*
X91457829Y-62153570D01*
X91442755Y-62127512D01*
X91426475Y-62102462D01*
X91408988Y-62078419D01*
X91390296Y-62055384D01*
X91370568Y-62033557D01*
X91349973Y-62013138D01*
X91328512Y-61994127D01*
X91306185Y-61976524D01*
X91282991Y-61960330D01*
X91258932Y-61945543D01*
X91234005Y-61932165D01*
X91208213Y-61920196D01*
X91181554Y-61909634D01*
X91154029Y-61900481D01*
X91125638Y-61892735D01*
X91096380Y-61886398D01*
X91066256Y-61881470D01*
X91035266Y-61877949D01*
X91003410Y-61875837D01*
X90970687Y-61875133D01*
X90935705Y-61875758D01*
X90901833Y-61877634D01*
X90869072Y-61880761D01*
X90837422Y-61885139D01*
X90806882Y-61890768D01*
X90777453Y-61897647D01*
X90749134Y-61905777D01*
X90721926Y-61915158D01*
X90695828Y-61925790D01*
X90670841Y-61937672D01*
X90646964Y-61950806D01*
X90624198Y-61965190D01*
X90602542Y-61980825D01*
X90581997Y-61997710D01*
X90562563Y-62015847D01*
X90544239Y-62035234D01*
X90527025Y-62055872D01*
X90510923Y-62077761D01*
X90495930Y-62100900D01*
X90482049Y-62125291D01*
X90469277Y-62150932D01*
X90457617Y-62177824D01*
X90447066Y-62205967D01*
X90437627Y-62235360D01*
X90429298Y-62266005D01*
X90422079Y-62297900D01*
X90415971Y-62331046D01*
X90410974Y-62365443D01*
X90407087Y-62401090D01*
X90404311Y-62437989D01*
X90402645Y-62476138D01*
X90402090Y-62515538D01*
X90302010Y-62515538D01*
X90302610Y-62471371D01*
X90304591Y-62424233D01*
X90307892Y-62378520D01*
X90312513Y-62334233D01*
X90318455Y-62291371D01*
X90325718Y-62249935D01*
X90334301Y-62209924D01*
X90344204Y-62171338D01*
X90355428Y-62134178D01*
X90367972Y-62098443D01*
X90381836Y-62064134D01*
X90397021Y-62031250D01*
X90413527Y-61999791D01*
X90431353Y-61969758D01*
X90450499Y-61941150D01*
X90470966Y-61913967D01*
X90492725Y-61888236D01*
X90515746Y-61864165D01*
X90540031Y-61841754D01*
X90565580Y-61821002D01*
X90592391Y-61801911D01*
X90620466Y-61784481D01*
X90649803Y-61768710D01*
X90680404Y-61754599D01*
X90712268Y-61742148D01*
X90745396Y-61731358D01*
X90779786Y-61722227D01*
X90815440Y-61714757D01*
X90852357Y-61708947D01*
X90890537Y-61704796D01*
X90910101Y-61703344D01*
X90929980Y-61702306D01*
X90950176Y-61701684D01*
X90970687Y-61701476D01*
X90998137Y-61701923D01*
G37*
G36*
X91013046Y-59544518D02*
G01*
X91049142Y-59547300D01*
X91084349Y-59551937D01*
X91118668Y-59558428D01*
X91152096Y-59566775D01*
X91184636Y-59576976D01*
X91216286Y-59589031D01*
X91247048Y-59602942D01*
X91276920Y-59618707D01*
X91305903Y-59636327D01*
X91333996Y-59655801D01*
X91361201Y-59677130D01*
X91387516Y-59700314D01*
X91412942Y-59725353D01*
X91437479Y-59752246D01*
X91461127Y-59780995D01*
X91483545Y-59811151D01*
X91504518Y-59842452D01*
X91524044Y-59874898D01*
X91542124Y-59908489D01*
X91558757Y-59943225D01*
X91573944Y-59979106D01*
X91587684Y-60016132D01*
X91599979Y-60054302D01*
X91610826Y-60093618D01*
X91620228Y-60134078D01*
X91628183Y-60175683D01*
X91634692Y-60218434D01*
X91639754Y-60262329D01*
X91643370Y-60307368D01*
X91645539Y-60353553D01*
X91646263Y-60400883D01*
X91645551Y-60449449D01*
X91643416Y-60496779D01*
X91639857Y-60542872D01*
X91634875Y-60587729D01*
X91628469Y-60631349D01*
X91620640Y-60673733D01*
X91611387Y-60714880D01*
X91600711Y-60754791D01*
X91588612Y-60793465D01*
X91575089Y-60830903D01*
X91560142Y-60867104D01*
X91543772Y-60902069D01*
X91525979Y-60935798D01*
X91506762Y-60968290D01*
X91486121Y-60999545D01*
X91464057Y-61029564D01*
X91440742Y-61057957D01*
X91416468Y-61084519D01*
X91391237Y-61109248D01*
X91365047Y-61132146D01*
X91337900Y-61153212D01*
X91309795Y-61172446D01*
X91280732Y-61189848D01*
X91250711Y-61205419D01*
X91219733Y-61219158D01*
X91187796Y-61231064D01*
X91154901Y-61241139D01*
X91121049Y-61249383D01*
X91086239Y-61255794D01*
X91050470Y-61260374D01*
X91013744Y-61263121D01*
X90976060Y-61264037D01*
X90938254Y-61263116D01*
X90901406Y-61260351D01*
X90865516Y-61255742D01*
X90830583Y-61249291D01*
X90796609Y-61240996D01*
X90763592Y-61230858D01*
X90731533Y-61218877D01*
X90700432Y-61205053D01*
X90670289Y-61189385D01*
X90641104Y-61171874D01*
X90612877Y-61152519D01*
X90585607Y-61131322D01*
X90559296Y-61108281D01*
X90533942Y-61083397D01*
X90509547Y-61056669D01*
X90486109Y-61028099D01*
X90463809Y-60997999D01*
X90442947Y-60966687D01*
X90423524Y-60934161D01*
X90405539Y-60900421D01*
X90388994Y-60865467D01*
X90373887Y-60829300D01*
X90360219Y-60791920D01*
X90347990Y-60753325D01*
X90337199Y-60713518D01*
X90327847Y-60672496D01*
X90319934Y-60630261D01*
X90313460Y-60586813D01*
X90308424Y-60542151D01*
X90304827Y-60496275D01*
X90302669Y-60449186D01*
X90301950Y-60400883D01*
X90402090Y-60400883D01*
X90402692Y-60440032D01*
X90404501Y-60478163D01*
X90407516Y-60515274D01*
X90411737Y-60551367D01*
X90417164Y-60586441D01*
X90423797Y-60620495D01*
X90431635Y-60653531D01*
X90440680Y-60685548D01*
X90450930Y-60716546D01*
X90462387Y-60746525D01*
X90475049Y-60775485D01*
X90488918Y-60803426D01*
X90503992Y-60830348D01*
X90520273Y-60856251D01*
X90537759Y-60881135D01*
X90556451Y-60905000D01*
X90576179Y-60927537D01*
X90596774Y-60948620D01*
X90618235Y-60968250D01*
X90640562Y-60986425D01*
X90663756Y-61003146D01*
X90687815Y-61018413D01*
X90712742Y-61032226D01*
X90738534Y-61044585D01*
X90765193Y-61055490D01*
X90792718Y-61064941D01*
X90821109Y-61072938D01*
X90850367Y-61079481D01*
X90880491Y-61084570D01*
X90911481Y-61088205D01*
X90943337Y-61090386D01*
X90976060Y-61091113D01*
X91008424Y-61090395D01*
X91039937Y-61088240D01*
X91070599Y-61084647D01*
X91100410Y-61079619D01*
X91129370Y-61073153D01*
X91157479Y-61065250D01*
X91184737Y-61055911D01*
X91211144Y-61045135D01*
X91236700Y-61032921D01*
X91261405Y-61019272D01*
X91285258Y-61004185D01*
X91308261Y-60987661D01*
X91330413Y-60969701D01*
X91351713Y-60950303D01*
X91372163Y-60929469D01*
X91391762Y-60907198D01*
X91410276Y-60883582D01*
X91427597Y-60858896D01*
X91443722Y-60833138D01*
X91458654Y-60806311D01*
X91472390Y-60778413D01*
X91484933Y-60749444D01*
X91496280Y-60719405D01*
X91506434Y-60688296D01*
X91515392Y-60656116D01*
X91523157Y-60622865D01*
X91529726Y-60588544D01*
X91535102Y-60553153D01*
X91539282Y-60516691D01*
X91542269Y-60479159D01*
X91544060Y-60440556D01*
X91544658Y-60400883D01*
X91544062Y-60361748D01*
X91542276Y-60323660D01*
X91539299Y-60286620D01*
X91535132Y-60250628D01*
X91529774Y-60215683D01*
X91523225Y-60181786D01*
X91515486Y-60148936D01*
X91506556Y-60117134D01*
X91496435Y-60086379D01*
X91485123Y-60056672D01*
X91472621Y-60028013D01*
X91458928Y-60000401D01*
X91444045Y-59973837D01*
X91427971Y-59948320D01*
X91410706Y-59923851D01*
X91392250Y-59900429D01*
X91372764Y-59878158D01*
X91352408Y-59857324D01*
X91331182Y-59837927D01*
X91309085Y-59819967D01*
X91286119Y-59803443D01*
X91262282Y-59788356D01*
X91237576Y-59774706D01*
X91211999Y-59762493D01*
X91185552Y-59751717D01*
X91158235Y-59742378D01*
X91130048Y-59734475D01*
X91100990Y-59728009D01*
X91071063Y-59722980D01*
X91040266Y-59719388D01*
X91008598Y-59717233D01*
X90976060Y-59716515D01*
X90943513Y-59717239D01*
X90911817Y-59719411D01*
X90880972Y-59723032D01*
X90850977Y-59728101D01*
X90821834Y-59734618D01*
X90793542Y-59742584D01*
X90766101Y-59751997D01*
X90739511Y-59762860D01*
X90713772Y-59775170D01*
X90688884Y-59788929D01*
X90664847Y-59804136D01*
X90641661Y-59820791D01*
X90619326Y-59838894D01*
X90597843Y-59858446D01*
X90577210Y-59879446D01*
X90557428Y-59901895D01*
X90538617Y-59925568D01*
X90521021Y-59950243D01*
X90504637Y-59975920D01*
X90489467Y-60002599D01*
X90475511Y-60030280D01*
X90462769Y-60058962D01*
X90451240Y-60088646D01*
X90440924Y-60119332D01*
X90431822Y-60151020D01*
X90423934Y-60183709D01*
X90417259Y-60217400D01*
X90411798Y-60252093D01*
X90407551Y-60287788D01*
X90404517Y-60324485D01*
X90402696Y-60362183D01*
X90402090Y-60400883D01*
X90301950Y-60400883D01*
X90302666Y-60352331D01*
X90304812Y-60305044D01*
X90308390Y-60259023D01*
X90313399Y-60214266D01*
X90319839Y-60170775D01*
X90327710Y-60128548D01*
X90337012Y-60087587D01*
X90347745Y-60047891D01*
X90359910Y-60009460D01*
X90373505Y-59972294D01*
X90388532Y-59936393D01*
X90404990Y-59901757D01*
X90422879Y-59868387D01*
X90442199Y-59836281D01*
X90462950Y-59805441D01*
X90485132Y-59775866D01*
X90508516Y-59747738D01*
X90532874Y-59721426D01*
X90558205Y-59696928D01*
X90584508Y-59674245D01*
X90611785Y-59653377D01*
X90640035Y-59634323D01*
X90669259Y-59617084D01*
X90699455Y-59601659D01*
X90730625Y-59588049D01*
X90762768Y-59576254D01*
X90795883Y-59566274D01*
X90829972Y-59558108D01*
X90865035Y-59551756D01*
X90901070Y-59547220D01*
X90938079Y-59544498D01*
X90976060Y-59543591D01*
X91013046Y-59544518D01*
G37*
%TO.C,H4*%
X85990095Y-117102619D02*
X85990095Y-116102619D01*
X85990095Y-116578809D02*
X86561523Y-116578809D01*
X86561523Y-117102619D02*
X86561523Y-116102619D01*
X87466285Y-116435952D02*
X87466285Y-117102619D01*
X87228190Y-116055000D02*
X86990095Y-116769285D01*
X86990095Y-116769285D02*
X87609142Y-116769285D01*
%TO.C,H1*%
X93543095Y-34292119D02*
X93543095Y-33292119D01*
X93543095Y-33768309D02*
X94114523Y-33768309D01*
X94114523Y-34292119D02*
X94114523Y-33292119D01*
X95114523Y-34292119D02*
X94543095Y-34292119D01*
X94828809Y-34292119D02*
X94828809Y-33292119D01*
X94828809Y-33292119D02*
X94733571Y-33434976D01*
X94733571Y-33434976D02*
X94638333Y-33530214D01*
X94638333Y-33530214D02*
X94543095Y-33577833D01*
%TO.C,H3*%
X93543095Y-117102619D02*
X93543095Y-116102619D01*
X93543095Y-116578809D02*
X94114523Y-116578809D01*
X94114523Y-117102619D02*
X94114523Y-116102619D01*
X94495476Y-116102619D02*
X95114523Y-116102619D01*
X95114523Y-116102619D02*
X94781190Y-116483571D01*
X94781190Y-116483571D02*
X94924047Y-116483571D01*
X94924047Y-116483571D02*
X95019285Y-116531190D01*
X95019285Y-116531190D02*
X95066904Y-116578809D01*
X95066904Y-116578809D02*
X95114523Y-116674047D01*
X95114523Y-116674047D02*
X95114523Y-116912142D01*
X95114523Y-116912142D02*
X95066904Y-117007380D01*
X95066904Y-117007380D02*
X95019285Y-117055000D01*
X95019285Y-117055000D02*
X94924047Y-117102619D01*
X94924047Y-117102619D02*
X94638333Y-117102619D01*
X94638333Y-117102619D02*
X94543095Y-117055000D01*
X94543095Y-117055000D02*
X94495476Y-117007380D01*
%TO.C,H2*%
X85690095Y-33992119D02*
X85690095Y-32992119D01*
X85690095Y-33468309D02*
X86261523Y-33468309D01*
X86261523Y-33992119D02*
X86261523Y-32992119D01*
X86690095Y-33087357D02*
X86737714Y-33039738D01*
X86737714Y-33039738D02*
X86832952Y-32992119D01*
X86832952Y-32992119D02*
X87071047Y-32992119D01*
X87071047Y-32992119D02*
X87166285Y-33039738D01*
X87166285Y-33039738D02*
X87213904Y-33087357D01*
X87213904Y-33087357D02*
X87261523Y-33182595D01*
X87261523Y-33182595D02*
X87261523Y-33277833D01*
X87261523Y-33277833D02*
X87213904Y-33420690D01*
X87213904Y-33420690D02*
X86642476Y-33992119D01*
X86642476Y-33992119D02*
X87261523Y-33992119D01*
%TD*%
M02*
