M48
; DRILL file {KiCad 7.0.2} date Mon May 12 08:16:45 2025
; FORMAT={-:-/ absolute / inch / decimal}
; #@! TF.CreationDate,2025-05-12T08:16:45+01:00
; #@! TF.GenerationSoftware,Kicad,Pcbnew,7.0.2
; #@! TF.FileFunction,Plated,1,2,PTH
FMAT,2
INCH
; #@! TA.AperFunction,Plated,PTH,ComponentDrill
T1C0.0315
; #@! TA.AperFunction,Plated,PTH,ComponentDrill
T2C0.0354
; #@! TA.AperFunction,Plated,PTH,ComponentDrill
T3C0.0551
; #@! TA.AperFunction,Plated,PTH,ComponentDrill
T4C0.1260
%
G90
G05
T1
X3.7144Y-3.0574
X3.7144Y-3.1574
T2
X3.4485Y-3.0394
X3.4485Y-3.1394
T3
X3.7043Y-1.7668
X3.7043Y-1.9668
X3.7043Y-2.1668
X3.7043Y-2.3668
X3.7043Y-2.5668
X3.7043Y-2.7668
X3.7195Y-3.4104
X3.7195Y-3.6104
X3.7195Y-3.8104
X3.7195Y-4.0104
X3.7195Y-4.2104
X3.7195Y-4.4104
T4
X3.4036Y-1.4697
X3.4154Y-4.7417
X3.7128Y-1.4815
X3.7128Y-4.7417
T0
M30
